<svg xmlns="http://www.w3.org/2000/svg" viewBox="0 0 350 204.42"><defs><style>.cls-1{fill:#f7d8c4;}.cls-2,.cls-4{fill:#ff852e;}.cls-10,.cls-3{fill:none;stroke:#ff852e;stroke-miterlimit:10;}.cls-3{stroke-width:2px;}.cls-4{font-size:6px;font-family:BebasNeue-Regular, Bebas Neue;letter-spacing:0.08em;}.cls-5{letter-spacing:0.08em;}.cls-6,.cls-9{letter-spacing:0.07em;}.cls-7{letter-spacing:0.03em;}.cls-8{letter-spacing:0.08em;}.cls-9{font-size:4px;}</style></defs><g id="Layer_2" data-name="Layer 2"><g id="Layer_1-2" data-name="Layer 1"><rect class="cls-1" width="350" height="204.42"/><path class="cls-2" d="M58.24,20c.49,1.1.25,1.46-1.06,2.17a11.2,11.2,0,0,1-.25,2.23c-.14.46-.65.8-1.07,1.28.19.62.12,1.25-1.22,1.73-.29,1.25-.39,1.37-1.49,1.81a1.58,1.58,0,0,1-1.35,1.81.48.48,0,0,0-.3.32c0,1.08-.74,1.49-1.65,1.7,0,1.21-.38,1.66-1.66,2.06a1.93,1.93,0,0,1-2,2.16c-.17.48,0,.7.5.76.81.1,1.62.23,2.43.36a6.15,6.15,0,0,1,.78.24,3.27,3.27,0,0,1-.19.31c-3.52,3.4-7,6.88-10.56,10.17a19.27,19.27,0,0,1-10,5,9.9,9.9,0,0,1-1.87.2,3.1,3.1,0,0,0-2.66,1.18A3.32,3.32,0,0,1,24,56,.76.76,0,0,1,22.87,56L21,54.05l-1.95-2c-.41-.41-.49-.92,0-1.26,1.36-1,1.58-2.4,1.78-4a20.53,20.53,0,0,1,4.07-9.15A77.24,77.24,0,0,1,34,27.4c2.22-2.18,4.47-4.33,6.7-6.48l.54-.47a9.18,9.18,0,0,1,.31,4.1c-.06.48-.06.83.61.76a1.77,1.77,0,0,1,2-1.62c.19-.94.62-1.58,1.66-1.61a.54.54,0,0,0,.34-.29,1.62,1.62,0,0,1,1.71-1.13c.48-1.18.84-1.4,1.9-1.2a2.57,2.57,0,0,1,.32-.69,1.44,1.44,0,0,1,.73-.52c.78-.06,1.56,0,2.28,0a7.25,7.25,0,0,1,.86-1.1.78.78,0,0,1,1.28.22c.06.17-.15.63-.24.63-1.2,0-1.64.75-1.78,1.76-1.56.14-1.67.24-2,1.84-1.83.41-2,.63-2.06,2a4.06,4.06,0,0,0-1.42.36,2.4,2.4,0,0,0-.73,1.24c-.11.38-.14.58-.61.57a1.73,1.73,0,0,0-1.75,1.56.78.78,0,0,1-.43.54c-1.65.39-1.91.67-2,2.31-2.18,0-2.46.66-2.48,2.4-.67-.19-.9.25-1.18.74a64.27,64.27,0,0,1-7,10,2.12,2.12,0,0,0-.34.52h0a1.83,1.83,0,0,0-.08.25L57.69,17.53C59,18.38,59.08,19,58.24,20Z"/><path class="cls-2" d="M114.83,167.12a2.67,2.67,0,0,1,5.22-.76c.09.27.21.34.49.28a4.64,4.64,0,0,1,3.87.9c.3.23.46.25.75,0a3.33,3.33,0,0,1,4-.5,3.37,3.37,0,0,1,1.69,3.54,3.32,3.32,0,0,1-2.76,2.72,10,10,0,0,1-1.25.07,1.36,1.36,0,0,1,.07.35c0,.64,0,1.28,0,1.92a2.49,2.49,0,0,0,0,.73c.42,1.2.88,2.38,1.33,3.56a1.87,1.87,0,0,0,.33.54c.84,1,1.68,2,2.55,2.93.23.26.24.41,0,.66-1.22,1.27-2.43,2.56-3.63,3.85-.2.21-.32.22-.55,0-1-.81-2-1.61-3.06-2.39a2.8,2.8,0,0,0-.7-.38l-3.38-1.08c-.61-.19-.59-.18-.9.35a5,5,0,0,1-5,2.68,4.88,4.88,0,0,1-4.43-3.29,5,5,0,0,1,1.1-5.52l.34-.36a5.76,5.76,0,0,1-2.75-3,5.63,5.63,0,0,1,2-6.71,5.89,5.89,0,0,1,4.56-.85A1.86,1.86,0,0,0,114.83,167.12Zm10.65,10.59-.91.46,2,2.39.11-.06Zm-3.31,4.51c-.24-.12-.67.1-1,.17v.15l2.6.93,0-.1A13,13,0,0,0,122.17,182.22Z"/><path class="cls-2" d="M269,115.06c-1.09-.7-2.19-1.39-3.28-2.1a2.63,2.63,0,0,1-.51-.49.41.41,0,0,1-.08-.34.4.4,0,0,1,.34-.12c.32.06.63.15.94.24a30.51,30.51,0,0,0,11.53.9,39.27,39.27,0,0,0,20.84-8.39,25.82,25.82,0,0,0,2.23-1.94,9.89,9.89,0,0,1,6.26-3c.58,0,1.16-.18,1.74-.24a1.76,1.76,0,0,0,1.62-1.28c.34-1,.68-2,1.06-3a7.79,7.79,0,0,1,.78-1.52,1.66,1.66,0,0,1,.8-.5,1,1,0,0,1,1.17.29,1,1,0,0,1,.13,1.15,19,19,0,0,1-.91,1.8c-.62,1.08-1.27,2.14-1.9,3.21a3.73,3.73,0,0,0-.32,3.48,3.57,3.57,0,0,1-.92,4.13,10.66,10.66,0,0,0-.77,1.09,18.15,18.15,0,0,1-5.61,4.85,35.73,35.73,0,0,1-11.61,4.24,42.18,42.18,0,0,1-14,.34,34.64,34.64,0,0,1-9.48-2.89Z"/><path class="cls-2" d="M157.65,38.48l2.57-.3a1.49,1.49,0,0,0,.45-.15c.07,0,.15-.12.14-.18s-.09-.15-.16-.17l-.63-.13a20.1,20.1,0,0,1-7.15-2.81,26.22,26.22,0,0,1-10-11.07,19.2,19.2,0,0,1-.76-1.81,6.58,6.58,0,0,0-2.86-3.63c-.33-.19-.64-.44-1-.64a1.18,1.18,0,0,1-.59-1.24c.09-.69.18-1.38.23-2.08a5.34,5.34,0,0,0,0-1.13,1.18,1.18,0,0,0-.33-.54.72.72,0,0,0-.78-.16.67.67,0,0,0-.42.65,12,12,0,0,0,0,1.34c.06.82.14,1.65.2,2.47a2.44,2.44,0,0,1-.82,2.16,2.38,2.38,0,0,0-.65,2.74,6.31,6.31,0,0,1,.14.87,11.94,11.94,0,0,0,1.94,4.53,23.68,23.68,0,0,0,5.69,5.91,27.73,27.73,0,0,0,8.26,4.27,23.31,23.31,0,0,0,6.5,1Z"/><path class="cls-2" d="M294.68,147.09c1.26-.92,2.28-1.65,3.29-2.42a3.2,3.2,0,0,1,3.24-.45c-1.3-2-.25-3.54.33-5.13.18-.48.26-1,.45-1.71.36.4.73.66.85,1a28.16,28.16,0,0,1,1,3.49c.29,1.45.67,2.86,1.1,4.27.53,1.73,2,2.07,3,3.05.17.17.62.13.91.06a3.49,3.49,0,0,1,1.08-.28c-.62,1.36-.1,1.94.8,2.27a10.09,10.09,0,0,1,.94-1.53c.14-.18.58-.1.89-.14l.19.27a11.39,11.39,0,0,0-.92,1.27c-.13.25-.2.75-.06.87a1.46,1.46,0,0,0,1,.17,4.8,4.8,0,0,0,.95-.26c.06-1.69.51-2.14,1.94-1.64L314,152.37c-.68.93-.56,1.23.69,1.67.17-.83.43-1.58,1.45-1.71.09,0,.17-.46.2-.71.11-.9.73-1.3,1.82-1-.23.38-.42.74-.66,1.07-.46.64-.94,1.27-1.41,1.9-.89,1.2-.82,1.42.69,2.13a1.62,1.62,0,0,1,1.33-1.88c.12,0,.22-.38.24-.59.09-1,.48-1.32,1.71-1.18-.16.29-.27.55-.43.78-.52.72-1.05,1.42-1.58,2.13-.9,1.21-.83,1.44.67,2.19a1.51,1.51,0,0,1,1.46-1.88c.31-1.81.67-2.14,1.93-1.67a8.33,8.33,0,0,1-.51.83c-.6.84-1.22,1.67-1.85,2.49-.3.4-.49.77,0,1.17s.85.4,1.25-.09a7.75,7.75,0,0,1,3.66-2.46c.49-.17.83-.19,1,.35.65,2.11,1.31,4.23,1.91,6.36.06.21-.17.51-.3.75s-.28.21-.3.33c-.21,1.28-1.24,1.08-2.09,1.16a16.58,16.58,0,0,1-9.76-1.67,14.26,14.26,0,0,1-5.87-6.56c-.82-1.64-1.52-3.33-2.27-5-.2-.44-.41-.88-.64-1.31-1.47-2.72-2.53-3.21-5.56-2.7a23.5,23.5,0,0,1-3.54.38A12.65,12.65,0,0,1,294.68,147.09Z"/><path class="cls-2" d="M9.83,151.63c.12.19,0,.4-.21.54a1.36,1.36,0,0,1-1,0l-4.38-2.82c-.46-.29-.39-.74.13-1a1.78,1.78,0,0,1,1.7.13Z"/><path class="cls-2" d="M16.36,151.63c.13.19.05.4-.2.54a1.36,1.36,0,0,1-1.05,0l-4.39-2.82c-.45-.29-.39-.74.14-1a1.78,1.78,0,0,1,1.7.13Z"/><path class="cls-2" d="M22.9,151.63c.13.19,0,.4-.21.54a1.33,1.33,0,0,1-1,0l-4.39-2.82c-.45-.29-.39-.74.14-1a1.76,1.76,0,0,1,1.69.13Z"/><path class="cls-2" d="M29.44,151.63c.12.19,0,.4-.21.54a1.33,1.33,0,0,1-1,0l-4.39-2.82c-.46-.29-.39-.74.13-1a1.78,1.78,0,0,1,1.7.13Z"/><path class="cls-2" d="M36,151.63c.12.19,0,.4-.21.54a1.36,1.36,0,0,1-1.05,0l-4.38-2.82c-.46-.29-.4-.74.13-1a1.78,1.78,0,0,1,1.7.13Z"/><path class="cls-2" d="M42.51,151.63c.13.19,0,.4-.2.54a1.36,1.36,0,0,1-1.05,0l-4.39-2.82c-.45-.29-.39-.74.14-1a1.78,1.78,0,0,1,1.7.13Z"/><path class="cls-2" d="M49.05,151.63c.12.19,0,.4-.21.54a1.33,1.33,0,0,1-1,0l-4.39-2.82c-.45-.29-.39-.74.14-1a1.76,1.76,0,0,1,1.69.13Z"/><path class="cls-2" d="M55.59,151.63c.12.19,0,.4-.21.54a1.36,1.36,0,0,1-1.05,0L50,149.39c-.46-.29-.39-.74.13-1a1.78,1.78,0,0,1,1.7.13Z"/><path class="cls-2" d="M222.18,13.14h-1.34V6.42h2.69a2.67,2.67,0,0,1,1.89.79,2.23,2.23,0,0,1,.42.55,2.82,2.82,0,0,1,.28.64,2.76,2.76,0,0,1,.09.71,2.59,2.59,0,0,1-.09.68,2.94,2.94,0,0,1-.24.62,2.36,2.36,0,0,1-.4.54,2.64,2.64,0,0,1-.52.43l.74,1.76h-1.43l-.58-1.35h-1.51Zm0-5.37v2.69h1.35a1.35,1.35,0,0,0,.52-.11,1.37,1.37,0,0,0,.42-.29,1.34,1.34,0,0,0,0-1.9,1.37,1.37,0,0,0-.42-.29,1.34,1.34,0,0,0-.52-.1Z"/><path class="cls-2" d="M224,22.74h-1.34V16H224Z"/><path class="cls-2" d="M226.12,31.66a3.55,3.55,0,0,1-2.25.83,3.2,3.2,0,0,1-.92-.13,3.32,3.32,0,0,1-.82-.35,3.7,3.7,0,0,1-.71-.54,3.41,3.41,0,0,1-.54-.71,3.24,3.24,0,0,1-.35-.83,3.59,3.59,0,0,1,0-1.84,3.57,3.57,0,0,1,.35-.83,3.35,3.35,0,0,1,.54-.7,3.7,3.7,0,0,1,.71-.54,3.32,3.32,0,0,1,.82-.35,3.58,3.58,0,0,1,.92-.13,3.45,3.45,0,0,1,1.2.22,3.25,3.25,0,0,1,1.05.61l-.7,1.17a2.28,2.28,0,0,0-.71-.48,2,2,0,0,0-.84-.18,2.08,2.08,0,0,0-.82.17,2,2,0,0,0-.68.46,2.1,2.1,0,0,0-.46,2.33,2.15,2.15,0,0,0,.46.68,2,2,0,0,0,.68.46,2.08,2.08,0,0,0,1.32.11,2.2,2.2,0,0,0,.45-.17V29h1.3Z"/><path class="cls-2" d="M222,41.94h-1.35V35.22H222v2.69h2.68V35.22H226v6.72h-1.35V39.26H222Z"/><path class="cls-2" d="M224,51.54h-1.34V46.16h-2V44.82H226v1.34h-2Z"/><path class="cls-2" d="M226.82,60.49a3.5,3.5,0,0,1-1,2.46,3.69,3.69,0,0,1-.7.55,3.41,3.41,0,0,1-1.76.47,3.52,3.52,0,0,1-.92-.12,3.57,3.57,0,0,1-.83-.35,3.4,3.4,0,0,1-.7-.55,3.33,3.33,0,0,1-.55-.7,3.42,3.42,0,0,1-.35-2.68,3.39,3.39,0,0,1,.35-.83,3.33,3.33,0,0,1,.55-.7,3.4,3.4,0,0,1,.7-.55,3.54,3.54,0,0,1,.83-.34,3.15,3.15,0,0,1,.92-.13,3.22,3.22,0,0,1,.93.13,3.54,3.54,0,0,1,.83.34,3.69,3.69,0,0,1,.7.55,3.64,3.64,0,0,1,.54.7,3.39,3.39,0,0,1,.35.83A3.58,3.58,0,0,1,226.82,60.49Zm-1.34,0a2.12,2.12,0,0,0-.17-.83,2.1,2.1,0,0,0-.46-.68,2,2,0,0,0-.68-.45,1.93,1.93,0,0,0-.83-.17,2,2,0,0,0-.83.17,2.12,2.12,0,0,0-.68.45,2.27,2.27,0,0,0-.46.68,2.12,2.12,0,0,0-.17.83,2.09,2.09,0,0,0,.17.83,2.17,2.17,0,0,0,1.14,1.14,2.12,2.12,0,0,0,.83.17,2.09,2.09,0,0,0,.83-.17,2,2,0,0,0,.68-.46,2,2,0,0,0,.46-.68A2.09,2.09,0,0,0,225.48,60.49Z"/><path class="cls-2" d="M226,73.43h-1.44L222,69v4.43h-1.35V66.71h1.44l2.59,4.43V66.71H226Z"/><path class="cls-2" d="M25.84,90.51a6.06,6.06,0,0,1,2.05-1.78,3.48,3.48,0,0,1,2-.37A3.24,3.24,0,0,1,31.5,89a3.62,3.62,0,0,1,1.24,1.62,2.48,2.48,0,0,1,.12,1.59A4.52,4.52,0,0,0,31,93a5.69,5.69,0,0,0-1.54,1.41,12.89,12.89,0,0,1,2.35-1.08,11.21,11.21,0,0,1,2.91-.57,9.59,9.59,0,0,1,3.17.32A8.51,8.51,0,0,1,41,94.65a3.78,3.78,0,0,1,1.41,2.16,5.36,5.36,0,0,1-.12,2.74,8.09,8.09,0,0,1-1.44,2.75,8.49,8.49,0,0,1-1.6,1.57,6.38,6.38,0,0,1-1.9,1,4.59,4.59,0,0,1-2,.21,3.93,3.93,0,0,1-1.91-.84A10.61,10.61,0,0,1,31.23,102a11.24,11.24,0,0,1-1.29-2.4c-.31-.8-.58-1.59-.82-2.34a3.46,3.46,0,0,1-3.35-.67A3.35,3.35,0,0,1,24.43,94,5.45,5.45,0,0,1,25.84,90.51Z"/><path class="cls-2" d="M44.72,92.27a2.58,2.58,0,0,1-1.9.79,4.68,4.68,0,0,1-2.16-.67,16.49,16.49,0,0,1-2.39-1.7c-.83-.7-1.7-1.47-2.59-2.3a3.66,3.66,0,0,0-1.35-.89,2.08,2.08,0,0,0-1-.11,1.3,1.3,0,0,0-.59.26,3.22,3.22,0,0,1-.9-.56,9.1,9.1,0,0,1-1-1A9.58,9.58,0,0,1,29.91,85a5.23,5.23,0,0,1-.6-1.09l.92-.74c.38-.31.79-.65,1.23-1L32.79,81c.44-.39.84-.74,1.18-1.07s.75-.73,1.14-1.15.77-.83,1.13-1.23l.92-1a9.66,9.66,0,0,0,1.1,1.65,14.05,14.05,0,0,0,1.53,1.56A11.6,11.6,0,0,0,41.53,81a5.81,5.81,0,0,0,1.74.67l-1.68-1.79-.35.33A15.35,15.35,0,0,1,39,78a11.56,11.56,0,0,1-1.38-2,8.14,8.14,0,0,0,.87-.62c.37-.29.78-.63,1.24-1s.9-.8,1.33-1.21c.27-.25.58-.56.94-.93s.69-.72,1-1.09a10.92,10.92,0,0,0,.73-.89c.23.38.51.78.84,1.22a9.7,9.7,0,0,0,1.1,1.23,5.75,5.75,0,0,0,1.39,1,3.8,3.8,0,0,0,1.69.37l0-.61a3.45,3.45,0,0,1-2.48-1,12.65,12.65,0,0,1-2.13-2.61c.44-.3.86-.62,1.28-1s.81-.69,1.19-1.05.86-.84,1.24-1.25.69-.79.94-1.12a4.92,4.92,0,0,1,1,.67,12.12,12.12,0,0,1,1.08,1,11.89,11.89,0,0,1,.9,1.07,3.13,3.13,0,0,1,.51.93,1.33,1.33,0,0,0-.3.92,2.72,2.72,0,0,0,.73,1.62Q54,73.21,55,74.6a20.82,20.82,0,0,1,1.64,2.59,4.8,4.8,0,0,1,.62,2.22,2.47,2.47,0,0,1-.87,1.84c-.29.28-.67.61-1.12,1l-1.48,1.2q-.8.63-1.59,1.32c-.54.45-1,.89-1.48,1.31a9.38,9.38,0,0,1-1-.66,13.45,13.45,0,0,1-1.13-1c-.39-.36-.74-.71-1.06-1a6.61,6.61,0,0,0,.73,1.36,7.72,7.72,0,0,0,.94,1.13,4.62,4.62,0,0,0,.94.73q-2.31,2.27-3.69,3.77C45.56,91.41,45,92,44.72,92.27Z"/><path class="cls-2" d="M68.79,73q-4.25,2.7-7.57,2.27t-5.56-4q-2.49-3.9-1.45-7.12c.7-2.15,2.47-4.13,5.33-5.94q4.56-2.91,7.83-2.46a7.77,7.77,0,0,1,5.49,3.93c1.67,2.63,2.15,5,1.42,7.21S71.73,71.14,68.79,73Zm-4.34-6,1.08-.69-1.45-2.28L63,64.76Z"/><path class="cls-2" d="M82,65a2.57,2.57,0,0,1-2,0,4.59,4.59,0,0,1-1.76-1.42,16.13,16.13,0,0,1-1.6-2.46c-.51-1-1-2-1.56-3.1a3.75,3.75,0,0,0-.92-1.33,2.09,2.09,0,0,0-.89-.47,1.36,1.36,0,0,0-.65,0,3.12,3.12,0,0,1-.63-.85,9.34,9.34,0,0,1-.58-1.27,11,11,0,0,1-.43-1.39,4.85,4.85,0,0,1-.15-1.24l1.13-.34,1.53-.51,1.65-.57c.56-.2,1.06-.38,1.5-.56s1-.4,1.48-.64,1-.49,1.51-.73.89-.45,1.23-.61a9.34,9.34,0,0,0,.42,1.93,11.58,11.58,0,0,0,.84,2,10.49,10.49,0,0,0,1.16,1.8,5.76,5.76,0,0,0,1.37,1.27l-.91-2.29-.44.18a15.59,15.59,0,0,1-1.3-2.79,11,11,0,0,1-.55-2.35,7.73,7.73,0,0,0,1-.25c.45-.13,1-.3,1.52-.5s1.13-.41,1.69-.63l1.21-.52q.7-.3,1.35-.63a9.82,9.82,0,0,0,1-.56q.12.66.33,1.44a9.8,9.8,0,0,0,.57,1.56,5.73,5.73,0,0,0,.94,1.4,3.82,3.82,0,0,0,1.43,1l.26-.56a3.44,3.44,0,0,1-1.95-1.82,12.5,12.5,0,0,1-1-3.21,15.38,15.38,0,0,0,1.54-.42c.51-.16,1-.34,1.49-.53s1.11-.46,1.62-.71a13.1,13.1,0,0,0,1.28-.69,5.4,5.4,0,0,1,.74,1,12.08,12.08,0,0,1,.64,1.3,9.84,9.84,0,0,1,.44,1.33,3.35,3.35,0,0,1,.13,1.06,1.36,1.36,0,0,0-.63.74,2.75,2.75,0,0,0,.09,1.77c.35,1.23.67,2.4.95,3.51a19.94,19.94,0,0,1,.57,3,4.76,4.76,0,0,1-.24,2.29,2.48,2.48,0,0,1-1.49,1.39c-.38.15-.85.32-1.41.5l-1.81.57-2,.63c-.67.23-1.29.45-1.86.68a9.49,9.49,0,0,1-.67-1c-.24-.4-.47-.84-.7-1.31s-.42-.93-.59-1.36a6.16,6.16,0,0,0,.17,1.54,7.92,7.92,0,0,0,.46,1.4,4.73,4.73,0,0,0,.6,1c-2,.83-3.6,1.55-4.82,2.14S82.31,64.91,82,65Z"/><path class="cls-2" d="M108.19,56.75a6.13,6.13,0,0,1-2.71.07,3.46,3.46,0,0,1-1.76-1,3.2,3.2,0,0,1-.83-1.57,3.58,3.58,0,0,1,.07-2,2.56,2.56,0,0,1,.91-1.31,4.5,4.5,0,0,0,1.9.64,5.28,5.28,0,0,0,2.08-.11,11.14,11.14,0,0,1-2.49-.66,11.28,11.28,0,0,1-2.62-1.4,10,10,0,0,1-2.24-2.26,8.62,8.62,0,0,1-1.38-3.22,3.83,3.83,0,0,1,.29-2.57,5.36,5.36,0,0,1,1.83-2,8.08,8.08,0,0,1,2.86-1.21,8.86,8.86,0,0,1,2.24-.19,6.65,6.65,0,0,1,2.11.42,4.57,4.57,0,0,1,1.68,1.11,3.86,3.86,0,0,1,.94,1.87,10.52,10.52,0,0,1,.25,3.14,11.07,11.07,0,0,1-.54,2.68c-.27.82-.55,1.59-.85,2.33a3.51,3.51,0,0,1,1.35.94,3.66,3.66,0,0,1,.82,1.7,3.33,3.33,0,0,1-.62,2.85A5.37,5.37,0,0,1,108.19,56.75Z"/><path class="cls-2" d="M110,103.45h0a2.65,2.65,0,0,1,2.64,2.5l1.09,19a2.64,2.64,0,0,1-2.64,2.8h-2.16a2.65,2.65,0,0,1-2.65-2.8l1.07-19A2.65,2.65,0,0,1,110,103.45Zm-3.84-5.64a3.85,3.85,0,0,1,.3-1.52,3.94,3.94,0,0,1,.8-1.24,3.8,3.8,0,0,1,1.22-.82,3.89,3.89,0,0,1,1.5-.29,4,4,0,0,1,1.5.29,3.84,3.84,0,0,1,1.23.82,4.06,4.06,0,0,1,.84,1.24,3.85,3.85,0,0,1,.3,1.52,3.65,3.65,0,0,1-.3,1.47,3.92,3.92,0,0,1-.84,1.21,3.87,3.87,0,0,1-1.23.83,3.63,3.63,0,0,1-1.5.31,3.57,3.57,0,0,1-1.5-.31,3.78,3.78,0,0,1-2-2A3.65,3.65,0,0,1,106.12,97.81Z"/><path class="cls-2" d="M150.85,105.25a16.08,16.08,0,0,1-.6,4.41A16.54,16.54,0,0,1,146,117a16.68,16.68,0,0,1-3.37,2.62,16.39,16.39,0,0,1-4,1.69,16.54,16.54,0,0,1-12.82-1.69,16.46,16.46,0,0,1-3.38-2.62,16.82,16.82,0,0,1-2.62-3.38,16.54,16.54,0,0,1,0-16.8,17,17,0,0,1,2.62-3.37,16.41,16.41,0,0,1,3.38-2.61,16.68,16.68,0,0,1,4-1.67,16.58,16.58,0,0,1,8.84,0,16.34,16.34,0,0,1,4,1.67,16.59,16.59,0,0,1,7.65,10A16.28,16.28,0,0,1,150.85,105.25Zm-6.41,0a10.12,10.12,0,0,0-.8-4,10.26,10.26,0,0,0-5.46-5.45,10.26,10.26,0,0,0-8,0A10.57,10.57,0,0,0,126.94,98a10.27,10.27,0,0,0-2.21,3.26,10,10,0,0,0-.81,4,9.78,9.78,0,0,0,.81,4,10.44,10.44,0,0,0,5.46,5.45,10.26,10.26,0,0,0,8,0,10.14,10.14,0,0,0,3.26-2.2,10.43,10.43,0,0,0,2.2-3.25A9.94,9.94,0,0,0,144.44,105.25Zm-10-18.5-2.53-3.35,6.67-6.23h0A5.36,5.36,0,0,1,137.22,85Z"/><path class="cls-2" d="M154.42,121.23h0V97.16h1.49l2,2.85a10.83,10.83,0,0,1,7.28-2.81h0a5.42,5.42,0,0,1,5.42,5.42v.69h-5.42a4.65,4.65,0,0,0-1.82.36,4.64,4.64,0,0,0-2.83,4.3v7.12A6.14,6.14,0,0,1,154.42,121.23Z"/><path class="cls-2" d="M196.34,121.23h-1.48l-2.39-3.31a19,19,0,0,1-1.85,1.48,14.51,14.51,0,0,1-2.06,1.19,12.66,12.66,0,0,1-2.21.79,9,9,0,0,1-2.3.3,13.25,13.25,0,0,1-4.78-.86,11.33,11.33,0,0,1-3.91-2.48,11.59,11.59,0,0,1-2.64-4,13.94,13.94,0,0,1-1-5.37,13.29,13.29,0,0,1,1-5.16,12.06,12.06,0,0,1,2.64-4,11.85,11.85,0,0,1,3.91-2.62,12.31,12.31,0,0,1,4.78-.94,9,9,0,0,1,2.31.3,11.24,11.24,0,0,1,2.23.81,12.83,12.83,0,0,1,2,1.21,17.82,17.82,0,0,1,1.83,1.5l2.39-2.85h1.48ZM190.16,109a6.43,6.43,0,0,0-.48-2.44,7.06,7.06,0,0,0-1.32-2.09,6.48,6.48,0,0,0-1.94-1.46,5.22,5.22,0,0,0-2.37-.55,6.64,6.64,0,0,0-2.37.42,5.52,5.52,0,0,0-1.94,1.26,5.83,5.83,0,0,0-1.29,2.06,8.58,8.58,0,0,0,0,5.6,5.78,5.78,0,0,0,1.29,2,5.25,5.25,0,0,0,1.94,1.26,6.43,6.43,0,0,0,2.37.43,5.22,5.22,0,0,0,2.37-.55,6.65,6.65,0,0,0,1.94-1.46,7.19,7.19,0,0,0,1.32-2.09A6.43,6.43,0,0,0,190.16,109Z"/><path class="cls-2" d="M201,121.23h0V93.76a6.18,6.18,0,0,1,6.18-6.18h0v27.47A6.18,6.18,0,0,1,201,121.23Z"/><path class="cls-2" d="M221.45,115.34a3.66,3.66,0,0,0,.72.14,5.63,5.63,0,0,0,.71,0,6,6,0,0,0,1.74-.25,6.1,6.1,0,0,0,1.56-.71,5.76,5.76,0,0,0,1.3-1.12,5.9,5.9,0,0,0,.93-1.47l4.5,4.51a12,12,0,0,1-2,2.18,12.19,12.19,0,0,1-2.4,1.65,12.24,12.24,0,0,1-5.66,1.37,12.12,12.12,0,0,1-4.77-1,11.92,11.92,0,0,1-3.91-2.63,12.17,12.17,0,0,1-2.64-4,13.07,13.07,0,0,1-1-5.11,13.59,13.59,0,0,1,1-5.22,11.91,11.91,0,0,1,2.64-4,11.79,11.79,0,0,1,3.91-2.58,12.29,12.29,0,0,1,4.77-.93,12.1,12.1,0,0,1,3,.36,12.31,12.31,0,0,1,2.73,1A12.63,12.63,0,0,1,231,99.28a12.06,12.06,0,0,1,2,2.19Zm3.14-12.66a3.66,3.66,0,0,0-.84-.2,8.19,8.19,0,0,0-.87,0,6.1,6.1,0,0,0-2.37.46,5.56,5.56,0,0,0-1.93,1.31,6.11,6.11,0,0,0-1.29,2.06,7.23,7.23,0,0,0-.47,2.71c0,.22,0,.48,0,.76a8.62,8.62,0,0,0,.11.87c.06.29.12.57.19.84a3.39,3.39,0,0,0,.3.72Z"/><path class="cls-2" d="M240,113.27h0a2.66,2.66,0,0,1-2.65-2.5l-1.07-19A2.66,2.66,0,0,1,239,89h2.16a2.65,2.65,0,0,1,2.65,2.8l-1.09,19A2.65,2.65,0,0,1,240,113.27Zm3.86,5.66a3.69,3.69,0,0,1-.31,1.52,3.84,3.84,0,0,1-.82,1.23,4.1,4.1,0,0,1-1.21.82,3.69,3.69,0,0,1-1.48.3,3.77,3.77,0,0,1-1.51-.3,4.29,4.29,0,0,1-1.22-.82,3.9,3.9,0,0,1-.84-1.23,3.85,3.85,0,0,1-.3-1.52,3.73,3.73,0,0,1,.3-1.48,3.81,3.81,0,0,1,.84-1.21,3.91,3.91,0,0,1,1.22-.82,3.61,3.61,0,0,1,1.51-.31,3.54,3.54,0,0,1,1.48.31,3.87,3.87,0,0,1,2,2A3.57,3.57,0,0,1,243.88,118.93Z"/><path class="cls-2" d="M276.42,47.33h0a.82.82,0,0,1,.81.76l.33,5.77a.81.81,0,0,1-.81.86h-.65a.81.81,0,0,1-.81-.86l.33-5.77A.8.8,0,0,1,276.42,47.33Zm-1.16-1.71a1.34,1.34,0,0,1,.08-.46,1.25,1.25,0,0,1,.25-.38,1.15,1.15,0,0,1,.83-.34,1.13,1.13,0,0,1,.45.09,1.13,1.13,0,0,1,.63.63,1.14,1.14,0,0,1,.09.46,1.15,1.15,0,0,1-.34.81,1.12,1.12,0,0,1-.38.26,1.13,1.13,0,0,1-.45.09,1.14,1.14,0,0,1-.46-.09,1.18,1.18,0,0,1-.37-.26,1.21,1.21,0,0,1-.25-.37A1.23,1.23,0,0,1,275.26,45.62Z"/><path class="cls-2" d="M288.86,47.88a5.09,5.09,0,0,1-1.48,3.58,5.28,5.28,0,0,1-1,.8,5.09,5.09,0,0,1-3.9.51,5.17,5.17,0,0,1-1.21-.51,5.09,5.09,0,0,1-1.82-1.83,4.66,4.66,0,0,1-.52-1.21,5,5,0,0,1-.18-1.34,5.11,5.11,0,0,1,.18-1.35,4.81,4.81,0,0,1,.52-1.21,5.16,5.16,0,0,1,.79-1,5,5,0,0,1,1-.8,5.61,5.61,0,0,1,1.21-.5,4.86,4.86,0,0,1,2.69,0,5.4,5.4,0,0,1,1.21.5,5.28,5.28,0,0,1,1,.8,5,5,0,0,1,1.3,2.23A5.11,5.11,0,0,1,288.86,47.88Zm-1.95,0a2.91,2.91,0,0,0-.25-1.21,3.07,3.07,0,0,0-.66-1,3.11,3.11,0,0,0-5.08,3.41,3,3,0,0,0,.67,1,3.11,3.11,0,0,0,4.41,0,3.13,3.13,0,0,0,.66-1A2.91,2.91,0,0,0,286.91,47.88Zm-3-5.63-.78-1,2-1.9h0a1.62,1.62,0,0,1-.42,2.39Z"/><path class="cls-2" d="M290,52.74h0V45.42h.45l.61.87a3.24,3.24,0,0,1,1-.64,3.44,3.44,0,0,1,1.19-.22h0a1.64,1.64,0,0,1,1.64,1.65v.21h-1.64a1.51,1.51,0,0,0-.56.11,1.37,1.37,0,0,0-.45.3,1.54,1.54,0,0,0-.3.45,1.51,1.51,0,0,0-.11.56v2.16A1.87,1.87,0,0,1,290,52.74Z"/><path class="cls-2" d="M302.7,52.74h-.46l-.72-1-.56.44a5,5,0,0,1-.63.37,4.12,4.12,0,0,1-.67.24,2.8,2.8,0,0,1-.7.09,4.15,4.15,0,0,1-1.46-.26,3.61,3.61,0,0,1-1.19-.76,3.55,3.55,0,0,1-.8-1.21,4.21,4.21,0,0,1-.29-1.64,3.94,3.94,0,0,1,.29-1.56A3.65,3.65,0,0,1,299,45.14a2.8,2.8,0,0,1,.7.09,4.23,4.23,0,0,1,.68.24,4.83,4.83,0,0,1,.62.37,5.08,5.08,0,0,1,.56.46l.72-.87h.46ZM300.82,49a1.92,1.92,0,0,0-.15-.74,2.05,2.05,0,0,0-.4-.63,2,2,0,0,0-.59-.45A1.64,1.64,0,0,0,299,47a2,2,0,0,0-.73.13,1.5,1.5,0,0,0-.58.38,1.89,1.89,0,0,0-.4.62,2.68,2.68,0,0,0,0,1.71,1.89,1.89,0,0,0,.4.62,1.5,1.5,0,0,0,.58.38A2,2,0,0,0,299,51a1.64,1.64,0,0,0,.72-.16,2.15,2.15,0,0,0,.59-.45,2.05,2.05,0,0,0,.4-.63A1.93,1.93,0,0,0,300.82,49Z"/><path class="cls-2" d="M304.12,52.74h0V44.39A1.88,1.88,0,0,1,306,42.51h0v8.35A1.88,1.88,0,0,1,304.12,52.74Z"/><path class="cls-2" d="M310.33,51a.85.85,0,0,0,.22,0h.22a1.77,1.77,0,0,0,.52-.07,1.74,1.74,0,0,0,.48-.22,1.61,1.61,0,0,0,.4-.34,1.71,1.71,0,0,0,.28-.45l1.37,1.38a4.21,4.21,0,0,1-.6.66,3.94,3.94,0,0,1-.73.5,3.45,3.45,0,0,1-.83.31,3.8,3.8,0,0,1-.89.11,3.68,3.68,0,0,1-1.45-.29,3.62,3.62,0,0,1-1.19-.8,3.83,3.83,0,0,1-.81-1.22A4.13,4.13,0,0,1,307,49a4.27,4.27,0,0,1,.29-1.58,3.65,3.65,0,0,1,2-2,3.67,3.67,0,0,1,1.45-.28,3.8,3.8,0,0,1,.89.11,3.74,3.74,0,0,1,.83.31,4.18,4.18,0,0,1,.74.5,3.79,3.79,0,0,1,.6.67Zm1-3.85A1.22,1.22,0,0,0,311,47h-.26a1.71,1.71,0,0,0-.72.14,1.59,1.59,0,0,0-.59.4,1.72,1.72,0,0,0-.39.62,2.14,2.14,0,0,0-.15.82c0,.07,0,.15,0,.24s0,.17,0,.26a1.22,1.22,0,0,0,.06.26,1.43,1.43,0,0,0,.08.22Z"/><path class="cls-2" d="M316,50.32h0a.79.79,0,0,1-.8-.76l-.33-5.77a.8.8,0,0,1,.81-.85h.65a.81.81,0,0,1,.81.85l-.33,5.77A.81.81,0,0,1,316,50.32ZM317.15,52a1.14,1.14,0,0,1-.09.46,1.09,1.09,0,0,1-.25.38,1.41,1.41,0,0,1-.37.25,1.13,1.13,0,0,1-.45.09,1.18,1.18,0,0,1-.46-.09,1.6,1.6,0,0,1-.37-.25,1.09,1.09,0,0,1-.25-.38,1.14,1.14,0,0,1-.09-.46,1.13,1.13,0,0,1,.09-.45,1.15,1.15,0,0,1,.25-.37,1.34,1.34,0,0,1,.37-.25,1.18,1.18,0,0,1,.46-.09,1.13,1.13,0,0,1,.45.09,1.21,1.21,0,0,1,.37.25,1.15,1.15,0,0,1,.25.37A1.13,1.13,0,0,1,317.15,52Z"/><path class="cls-3" d="M293.11,69,264.37,53.31a5.43,5.43,0,0,1-.15-9.45L293,26.94a5.43,5.43,0,0,1,5.48,0l29.17,16.92a5.43,5.43,0,0,1-.15,9.48L298.3,69A5.46,5.46,0,0,1,293.11,69Z"/><text class="cls-4" transform="translate(275.75 81.31)"><tspan xml:space="preserve"> M</tspan><tspan class="cls-5" x="5.09" y="0">E</tspan><tspan class="cls-6" x="7.73" y="0">XICAN CUISINE</tspan></text><circle class="cls-2" cx="27.43" cy="178.5" r="16.54"/><path class="cls-1" d="M18.25,187.08l-1.86-.22a1.39,1.39,0,0,1-.33-.1s-.11-.09-.1-.13.07-.11.12-.12a3.41,3.41,0,0,1,.46-.1,14.7,14.7,0,0,0,5.18-2,18.88,18.88,0,0,0,7.25-8,13.57,13.57,0,0,0,.56-1.31,4.72,4.72,0,0,1,2.07-2.63c.24-.15.46-.32.7-.47a.85.85,0,0,0,.43-.9c-.06-.5-.12-1-.16-1.51a3.22,3.22,0,0,1,0-.82.85.85,0,0,1,.24-.39.52.52,0,0,1,.57-.12.47.47,0,0,1,.3.47,7.81,7.81,0,0,1,0,1c0,.6-.09,1.2-.14,1.8a1.79,1.79,0,0,0,.6,1.57,1.72,1.72,0,0,1,.47,2,3.31,3.31,0,0,0-.1.63,8.77,8.77,0,0,1-1.41,3.29A17.14,17.14,0,0,1,29,183.18a20.35,20.35,0,0,1-6,3.11,17,17,0,0,1-4.71.75Z"/><text class="cls-4" transform="translate(160.34 149.99)">CELEBR<tspan class="cls-7" x="16.26" y="0">A</tspan><tspan x="18.84" y="0">TING</tspan><tspan x="6.23" y="6">M</tspan><tspan class="cls-8" x="9.91" y="6">E</tspan><tspan x="12.55" y="6">XI</tspan><tspan class="cls-8" x="17.04" y="6">C</tspan><tspan x="19.8" y="6">O</tspan><tspan class="cls-9"><tspan x="3.55" y="12">- SINCE 2021 -</tspan></tspan></text><rect class="cls-10" x="151.21" y="140.87" width="47.58" height="26.7"/><path class="cls-2" d="M220.45,204.42c2.28-2.18,4.53-4.4,6.8-6.6a1.51,1.51,0,0,0,.18-.28,5.13,5.13,0,0,0-.7-.2c-.72-.12-1.45-.24-2.17-.33-.45,0-.6-.25-.45-.67a1.74,1.74,0,0,0,1.79-1.93c1.14-.36,1.47-.77,1.48-1.85.82-.18,1.44-.55,1.48-1.51a.4.4,0,0,1,.26-.29,1.43,1.43,0,0,0,1.21-1.62c1-.39,1.07-.5,1.33-1.62,1.2-.42,1.25-1,1.09-1.54.37-.42.83-.73,1-1.14a9.64,9.64,0,0,0,.21-2c1.18-.63,1.39-1,1-1.93.75-.9.64-1.46-.48-2.23l-23.75,23.74.06-.22h0a1.89,1.89,0,0,1,.3-.47,57.56,57.56,0,0,0,6.3-9c.25-.44.46-.83,1.05-.66,0-1.56.27-2.17,2.21-2.14.11-1.47.34-1.72,1.82-2.07a.72.72,0,0,0,.38-.48,1.56,1.56,0,0,1,1.56-1.4c.42,0,.45-.16.55-.5a2.18,2.18,0,0,1,.65-1.11,3.49,3.49,0,0,1,1.27-.32c0-1.22.2-1.41,1.84-1.78.29-1.42.38-1.51,1.77-1.64.13-.9.53-1.57,1.59-1.57.08,0,.27-.41.22-.56a.7.7,0,0,0-1.15-.2,7,7,0,0,0-.76,1c-.64,0-1.34,0-2,0-.24,0-.48.27-.66.46a2.52,2.52,0,0,0-.29.62c-.94-.18-1.26,0-1.69,1.07a1.43,1.43,0,0,0-1.53,1,.5.5,0,0,1-.3.26c-.93,0-1.32.6-1.48,1.43a1.59,1.59,0,0,0-1.79,1.46c-.6.06-.6-.26-.54-.68a8.42,8.42,0,0,0-.28-3.67l-.48.42c-2,1.93-4,3.85-6,5.79a67.34,67.34,0,0,0-8.19,9.18,18.75,18.75,0,0,0-3.56,7.74Z"/><path class="cls-2" d="M198.08,15.57a1.54,1.54,0,0,1-1.69-.39,1.6,1.6,0,0,1-.14-1.93l8.83-8.11a2.11,2.11,0,0,1,3.1.25,2.21,2.21,0,0,1-.42,3.14Z"/><path class="cls-2" d="M198.08,27.66a1.54,1.54,0,0,1-1.69-.39,1.6,1.6,0,0,1-.14-1.93l8.83-8.11a2.11,2.11,0,0,1,3.1.25,2.21,2.21,0,0,1-.42,3.14Z"/><path class="cls-2" d="M198.08,39.75a1.54,1.54,0,0,1-1.69-.39,1.6,1.6,0,0,1-.14-1.93l8.83-8.11a2.11,2.11,0,0,1,3.1.25,2.21,2.21,0,0,1-.42,3.14Z"/><path class="cls-2" d="M198.08,51.83a1.52,1.52,0,0,1-1.69-.38,1.6,1.6,0,0,1-.14-1.93l8.83-8.12a2.12,2.12,0,0,1,3.1.26,2.19,2.19,0,0,1-.42,3.13Z"/><path class="cls-2" d="M198.08,63.92a1.54,1.54,0,0,1-1.69-.38,1.61,1.61,0,0,1-.14-1.93l8.83-8.12a2.12,2.12,0,0,1,3.1.25,2.21,2.21,0,0,1-.42,3.14Z"/><path class="cls-2" d="M198.08,76a1.54,1.54,0,0,1-1.69-.38,1.61,1.61,0,0,1-.14-1.93l8.83-8.12a2.12,2.12,0,0,1,3.1.25,2.21,2.21,0,0,1-.42,3.14Z"/><path class="cls-2" d="M197.52,0l-1.27,1.16a1.6,1.6,0,0,0,.14,1.93,1.52,1.52,0,0,0,1.69.39L202.86,0Z"/><path class="cls-2" d="M68.2,173a4.73,4.73,0,0,1,2.78-.68,5.1,5.1,0,0,1,2.86.68,2.34,2.34,0,0,1,1,2.07,4,4,0,0,1-.08.81,2,2,0,0,1-.36.75q-.29.39-.54.69a6.37,6.37,0,0,1-.91.8q-1,.78-2,1.53l-1.24.89-1,.7h3.84a2.14,2.14,0,0,0,1.57-.48,2.91,2.91,0,0,0,.65-1.5h.27l-.16,4.43H67.38v-1.85L69,180.38a12.38,12.38,0,0,0,2.34-2.68,5.14,5.14,0,0,0,.68-2.59,4.29,4.29,0,0,0-.3-1.94,1.07,1.07,0,0,0-1-.52,1.2,1.2,0,0,0-1,.37,1.16,1.16,0,0,0-.29.7,1.52,1.52,0,0,0,.1.59H70a2.47,2.47,0,0,1,.12.81,1,1,0,0,1-.4.82,1.53,1.53,0,0,1-1,.34,1.27,1.27,0,0,1-1-.42,1.59,1.59,0,0,1-.36-1.07A2.11,2.11,0,0,1,68.2,173Z"/><path class="cls-2" d="M80.77,183.88a4.2,4.2,0,0,1-3.54-1.57A7,7,0,0,1,76,177.93a6,6,0,0,1,1.3-4.2,5.24,5.24,0,0,1,7.08,0,8.09,8.09,0,0,1,0,8.78A4.72,4.72,0,0,1,80.77,183.88Zm-1.47-6.37v1.43q0,1.55,0,2.19a7,7,0,0,0,.17,1.33,1.33,1.33,0,0,0,.46.89,1.42,1.42,0,0,0,.75.2,3.33,3.33,0,0,0,.65-.05.82.82,0,0,0,.38-.2A1.33,1.33,0,0,0,82,183a1.17,1.17,0,0,0,.19-.47c.05-.21.09-.41.12-.59a6.41,6.41,0,0,0,.06-.8c0-.68,0-1.37,0-2.06v-1.41a20.81,20.81,0,0,0-.24-4.06,1.19,1.19,0,0,0-1.32-.92,1.22,1.22,0,0,0-1.33.95A19.54,19.54,0,0,0,79.3,177.51Z"/><path class="cls-2" d="M68.2,188.39A4.65,4.65,0,0,1,71,187.7a5,5,0,0,1,2.86.69,2.33,2.33,0,0,1,1,2.06,4,4,0,0,1-.08.81,2,2,0,0,1-.36.75c-.19.26-.37.5-.54.7a7.06,7.06,0,0,1-.91.8q-1,.77-2,1.53l-1.24.88-1,.71h3.84a2.14,2.14,0,0,0,1.57-.48,2.91,2.91,0,0,0,.65-1.51h.27l-.16,4.44H67.38v-1.86L69,195.73a12.15,12.15,0,0,0,2.34-2.68,5.11,5.11,0,0,0,.68-2.59,4.32,4.32,0,0,0-.3-1.94,1.09,1.09,0,0,0-1-.52,1.23,1.23,0,0,0-1,.37,1.19,1.19,0,0,0-.29.71,1.55,1.55,0,0,0,.1.59H70a2.39,2.39,0,0,1,.12.81,1,1,0,0,1-.4.81,1.53,1.53,0,0,1-1,.35,1.25,1.25,0,0,1-1-.43,1.57,1.57,0,0,1-.36-1.06A2.1,2.1,0,0,1,68.2,188.39Z"/><path class="cls-2" d="M79.57,188.29l-1.76.23,0-.32,3.61-.5h1.3v11.07h1.25v.31h-6v-.31h1.68Z"/><path class="cls-2" d="M320.55,181.89l1.2-.74a.79.79,0,0,0,.3-.25.35.35,0,0,0,0-.24.3.3,0,0,0-.16-.18.61.61,0,0,0-.28-.06v-2.25h4.89v2.25a2.35,2.35,0,0,0-.68.08,2.51,2.51,0,0,0-.64.29l-1.26.74,2,2.64a3.4,3.4,0,0,0,.21.28,1.51,1.51,0,0,0,.23.21,1.3,1.3,0,0,0,.29.14,1.71,1.71,0,0,0,.42,0v2.25h-5.5v-2.25a.73.73,0,0,0,.38-.07.32.32,0,0,0,.15-.18.27.27,0,0,0,0-.2.35.35,0,0,0-.07-.15l-.87-1.09-.67.4v.69a1.87,1.87,0,0,0,0,.27.32.32,0,0,0,.07.19.48.48,0,0,0,.2.11,1.73,1.73,0,0,0,.36,0v2.25H316v-2.25a1.5,1.5,0,0,0,.77-.14.57.57,0,0,0,.23-.53V181.1a.58.58,0,0,0-.23-.54,1.5,1.5,0,0,0-.77-.14v-2.25h5.22v2.25a1.73,1.73,0,0,0-.36,0,.48.48,0,0,0-.2.11.32.32,0,0,0-.07.19,2.16,2.16,0,0,0,0,.28Z"/><path class="cls-2" d="M335.63,184.84a1.58,1.58,0,0,0,.41,0,.49.49,0,0,0,.27-.16.73.73,0,0,0,.14-.32,3.89,3.89,0,0,0,0-.53h2.12v3.3H330v-2.25a1.44,1.44,0,0,0,.76-.14.55.55,0,0,0,.23-.53V181.1a.56.56,0,0,0-.23-.54,1.44,1.44,0,0,0-.76-.14v-2.25h8.63v3.3h-2.12a3.89,3.89,0,0,0,0-.53.73.73,0,0,0-.14-.32.49.49,0,0,0-.27-.16,1.58,1.58,0,0,0-.41,0h-1.09V182h1.93v1.07h-1.93v1.74Z"/><path class="cls-2" d="M346,184.84h-.33v2.25h4.24v-3.31l-1.09-2.68a.64.64,0,0,1-.05-.51c.06-.12.24-.17.54-.17h.12v-2.25h-6.23v2.25h.12c.3,0,.48.05.53.16a.65.65,0,0,1,0,.52l-1.24,3.07a2,2,0,0,1-.29.5.73.73,0,0,1-.58.17h-.25v2.25h3.77v-2.25h-.34c-.24,0-.39-.05-.46-.17a.46.46,0,0,1,0-.43l.09-.26h1.91l.09.26a.49.49,0,0,1,0,.43A.53.53,0,0,1,346,184.84Zm-1.2-1.81.63-1.86h.05l.61,1.86Z"/><polygon class="cls-2" points="59.92 114.02 66.99 111.36 69.37 103.99 71.95 111.21 79.41 113.44 72.51 116.38 69.95 123.48 67.01 116.41 59.92 114.02"/><polygon class="cls-2" points="70.89 128.33 75.07 126.75 76.48 122.39 78.01 126.67 82.42 127.99 78.34 129.72 76.83 133.92 75.08 129.74 70.89 128.33"/><polygon class="cls-2" points="231.09 150.02 241.21 146.21 244.62 135.65 248.31 145.99 258.98 149.19 249.11 153.39 245.45 163.55 241.24 153.43 231.09 150.02"/><polygon class="cls-2" points="246.79 170.5 252.78 168.24 254.8 162 256.99 168.12 263.3 170 257.46 172.49 255.29 178.5 252.8 172.52 246.79 170.5"/></g></g></svg>