<svg xmlns="http://www.w3.org/2000/svg" viewBox="0 0 96.04 96.04"><defs><style>.cls-1{fill:#f9c7c7;}.cls-2{fill:#ef3c38;}</style></defs><g id="Layer_2" data-name="Layer 2"><g id="Layer_1-2" data-name="Layer 1"><circle class="cls-1" cx="48.02" cy="48.02" r="48.02"/><path class="cls-2" d="M9,67.5c10.61-1.17,19.69-5.37,28.58-10.56a160.1,160.1,0,0,1,20.69-9.75A33,33,0,0,0,74.64,33.33c3.45-5.72,1.91-10.71-4.49-15.68,6-1.06,10.59,1.12,13.4,6.42,1.2,2.25,2.16,4.62,3.45,6.8,3,5,1.92,9.36-1.69,13.64-6.76,8-16,12-25.27,16C52.93,63.54,45.5,66,38.71,69.61c-7.39,4-15.11,3.78-22.93,3.59C12.35,73.11,10.39,70.6,9,67.5Z"/><path class="cls-2" d="M63.83,20.81C65,26.27,63.58,30,58.5,32.74c-3.31,1.78-3.93,3.75-2.48,6.91A6.88,6.88,0,0,1,56.89,43a4.12,4.12,0,0,1-1.59,2.86c-2.61,1.47-5.47,2.47-8.12,3.87-3.21,1.7-6.16,1.77-9-.71s-4.2-7.12-3-10.4c1.19-3.12,2.09-6.44,3.81-9.24a16.87,16.87,0,0,1,5.56-5C50.42,20.75,56.83,19.72,63.83,20.81Z"/><path class="cls-2" d="M40.48,52.79A51.28,51.28,0,0,1,34.85,56a127.3,127.3,0,0,1-13.63,4.89c-4.14,1.09-6.91-2.24-5.11-6.14,1.37-3,3.65-5.55,5.7-8.16a78.51,78.51,0,0,1,5.33-5.91c2-2.05,5.07-1.7,5.41.84C33.2,46.39,34.67,50.46,40.48,52.79Z"/><path class="cls-2" d="M68.73,24.48a7.68,7.68,0,0,1,1.94,7.44c-.58,2.81-3,3.28-5.29,3.59-2.08.27-4.17.37-6.23.54Z"/><path class="cls-2" d="M65.71,38.36c-2.7,4.78-5,5.13-7.45,1.49a3,3,0,0,1-.4-2.12c.09-.33,1.19-.63,1.77-.54C61.55,37.46,63.44,37.91,65.71,38.36Z"/><path class="cls-2" d="M30.34,37.44l5.11-6C35.49,36.05,34.31,37.43,30.34,37.44Z"/></g></g></svg>