<svg xmlns="http://www.w3.org/2000/svg" viewBox="0 0 96.04 96.04"><defs><style>.cls-1{fill:#f4d3ba;}.cls-2{fill:#ff852e;}</style></defs><g id="Layer_2" data-name="Layer 2"><g id="Layer_1-2" data-name="Layer 1"><circle class="cls-1" cx="48.02" cy="48.02" r="48.02"/><path class="cls-2" d="M76.14,18.05a5.25,5.25,0,0,1,5.17,4.51c.22,1.09.52,1.65,1.81,1.81,2.33.28,4.32,3.73,3.72,6.12a6.6,6.6,0,0,1-4.64,5.07,4.61,4.61,0,0,1-3-.24,4.52,4.52,0,0,0-5.09.44,26.25,26.25,0,0,0-2.65,2.52,1.52,1.52,0,0,1-2.06.36,5.15,5.15,0,0,1-2.66-3.59c-.39-1.72-.84-3.43-1.18-5.15A1.31,1.31,0,0,1,66,28.79a8.23,8.23,0,0,0,3.21-5.44A7.21,7.21,0,0,1,76.14,18.05Z"/><path class="cls-2" d="M70.09,39.94a4.28,4.28,0,0,1-.44.67c-5.25,4.7-9,10.48-12.49,16.55A58.63,58.63,0,0,1,36.73,78.27c-1.16.72-2.18,1.85-3.52,2.06-3.42.55-4.81.44-7.52-.57-9.39-3-9.6-9.39-14.14-15A17.92,17.92,0,0,1,8.07,48.32C9.13,44.18,12.16,42,16,40.6a53.34,53.34,0,0,1,18.28-3.11c4.88,0,9.87,0,14.53-1.71,3.51-1.31,6.85-3.08,10.25-4.68.9-.43,1.72-1,2.61-1.47,1.17-.61,1.87-.38,2.31.87a20.47,20.47,0,0,1,1,3.79C65.44,37.29,66.53,39.62,70.09,39.94Z"/></g></g></svg>