<svg xmlns="http://www.w3.org/2000/svg" width="100" height="100" viewBox="0 0 100 100">
  <defs>
    <style>
      .cls-1 {
        fill: #f7f7f5;
      }

      .cls-1, .cls-2, .cls-3 {
        stroke: #020202;
        stroke-miterlimit: 10;
        stroke-width: 2px;
      }

      .cls-2 {
        fill: #ed1414;
      }

      .cls-3 {
        fill: #eac115;
      }
    </style>
  </defs>
  <g id="chili">
    <g>
      <circle class="cls-1" cx="51" cy="58.5" r="37"/>
      <path class="cls-2" d="M59.45,3.59c-3.35-.42-6.58,2.2-8.28,6.26C50,7.79,48.33,6.5,46.5,6.5c-3.59,0-6.5,4.92-6.5,11s2.91,11,6.5,11c2.31,0,4.34-2.05,5.49-5.12a6.64,6.64,0,0,0,4.56,3c4.38.56,8.59-4.1,9.39-10.4S63.83,4.15,59.45,3.59Z"/>
      <path class="cls-2" d="M57.11,60.59c-2.94-.38-5.79,1.93-7.29,5.5-1-1.81-2.49-3-4.1-3-3.16,0-5.72,4.34-5.72,9.68s2.56,9.68,5.72,9.68c2,0,3.81-1.8,4.83-4.51a5.8,5.8,0,0,0,4,2.67c3.86.49,7.55-3.61,8.26-9.15S61,61.08,57.11,60.59Z"/>
      <polygon class="cls-3" points="51.06 78.82 62.5 59 39.62 59 51.06 78.82"/>
    </g>
  </g>
</svg>
