<svg xmlns="http://www.w3.org/2000/svg" viewBox="0 0 61.86 62.39"><defs><style>.cls-1{fill:#ef3c38;}</style></defs><g id="Layer_2" data-name="Layer 2"><g id="Layer_1-2" data-name="Layer 1"><path class="cls-1" d="M7.56,62.39c-2-.24-4.1-.47-6.14-.72a3.73,3.73,0,0,1-1.07-.35C.19,61.25,0,61,0,60.89s.23-.35.4-.4a15,15,0,0,1,1.51-.31A48.33,48.33,0,0,0,19,53.45,62.33,62.33,0,0,0,42.9,27a45.38,45.38,0,0,0,1.82-4.32A15.68,15.68,0,0,1,51.55,14c.8-.48,1.53-1.06,2.32-1.55a2.79,2.79,0,0,0,1.42-3c-.21-1.65-.42-3.31-.55-5A12.27,12.27,0,0,1,54.8,1.8,2.6,2.6,0,0,1,55.59.52,1.67,1.67,0,0,1,57.45.13a1.6,1.6,0,0,1,1,1.56c0,1.06,0,2.13-.05,3.19-.14,2-.33,3.94-.49,5.91a5.9,5.9,0,0,0,2,5.18,5.7,5.7,0,0,1,1.55,6.54,15.83,15.83,0,0,0-.34,2.08,28.68,28.68,0,0,1-4.64,10.83A56.72,56.72,0,0,1,42.85,49.54,66.61,66.61,0,0,1,23.11,59.77,55.65,55.65,0,0,1,7.57,62.24Z"/></g></g></svg>