<svg xmlns="http://www.w3.org/2000/svg" viewBox="0 0 91.22 91.22"><defs><style>.cls-1{fill:#f9c7c7;}.cls-2{fill:#efa3a3;}.cls-3{fill:#ef3c38;}.cls-4{fill:#d12f2f;}</style></defs><g id="Layer_2" data-name="Layer 2"><g id="Layer_1-2" data-name="Layer 1"><rect class="cls-1" width="91.22" height="91.22" rx="13.85"/><path class="cls-2" d="M77,0H44.37V91.22H77A14,14,0,0,0,91.22,77.37V13.85A14,14,0,0,0,77,0Z"/><path class="cls-3" d="M36.86,25.7V37.38H24.05V51.8H36.86V84.28H52V51.8H65L66.5,37.39H52V25.7c0-2.06,1.63-3.09,2.32-3.73,1.21-1,7.07-1.19,7.07-1.19h5.75V7.71a73.82,73.82,0,0,0-9-.77C36.42,6.94,36.86,25.7,36.86,25.7Z"/><path class="cls-4" d="M54.35,22c1.21-1,7.07-1.19,7.07-1.19h5.75V7.71a73.82,73.82,0,0,0-9-.77c-6.25,0-10.66,1.56-13.77,3.77V84.28H52V51.8H65L66.5,37.39H52V25.7C52,23.64,53.66,22.61,54.35,22Z"/></g></g></svg>