<svg xmlns="http://www.w3.org/2000/svg" viewBox="0 0 96.04 96.04"><defs><style>.cls-1{fill:#c1f4f0;}.cls-2{fill:#00c3ba;}</style></defs><g id="Layer_2" data-name="Layer 2"><g id="Layer_1-2" data-name="Layer 1"><circle class="cls-1" cx="48.02" cy="48.02" r="48.02"/><path class="cls-2" d="M91.08,32.35c-3-2.22-5.51-4-7.93-5.82-2.11-1.6-4.42-2.22-7.8-1.11,3.13-4.85.61-8.51-.8-12.34-.42-1.15-.63-2.38-1.08-4.13-.86,1-1.77,1.59-2,2.41a70.48,70.48,0,0,0-2.33,8.42,104.16,104.16,0,0,1-2.64,10.29c-1.27,4.16-4.78,5-7.18,7.34-.39.39-1.48.29-2.18.13a8.77,8.77,0,0,0-2.6-.67c1.49,3.27.23,4.68-1.92,5.47a25.85,25.85,0,0,0-2.26-3.7c-.35-.41-1.41-.23-2.15-.31L47.7,39A27.37,27.37,0,0,1,49.92,42c.32.6.48,1.8.15,2.09a3.42,3.42,0,0,1-2.28.42,10.74,10.74,0,0,1-2.29-.64c-.15-4-1.24-5.14-4.67-3.93,1.32,1.78,2.57,3.43,3.79,5.11,1.64,2.24,1.36,3-1.66,4-.4-2-1-3.8-3.48-4.11-.24,0-.41-1.1-.49-1.71-.26-2.16-1.75-3.13-4.38-2.49.56.91,1,1.77,1.58,2.55,1.11,1.55,2.26,3.06,3.4,4.59,2.14,2.88,2,3.41-1.67,5.12.09-2.34-.77-4-3.19-4.52-.29-.06-.53-.92-.57-1.43C33.93,44.64,33,43.89,30,44.24a18.89,18.89,0,0,0,1,1.88c1.24,1.72,2.52,3.41,3.79,5.12,2.16,2.91,2,3.48-1.6,5.28.25-2.7-1-4.25-3.53-4.53-.75-4.36-1.62-5.16-4.65-4,.42.69.77,1.38,1.22,2q2.21,3,4.46,6c.73,1,1.19,1.85-.06,2.81s-2.06,1-3-.22a18.73,18.73,0,0,0-8.81-5.92c-1.19-.42-2-.47-2.41.84-1.58,5.09-3.15,10.19-4.61,15.32-.14.5.42,1.23.74,1.81.16.31.67.5.72.8.5,3.07,3,2.6,5,2.79,8.18.77,16.09,0,23.5-4C48.49,66.59,52.74,60.9,56,54.37c2-3.94,3.64-8,5.46-12,.49-1.06,1-2.13,1.54-3.16,3.53-6.54,6.08-7.73,13.4-6.51a53,53,0,0,0,8.5.92C86.85,33.6,88.81,32.84,91.08,32.35Z"/></g></g></svg>