<svg xmlns="http://www.w3.org/2000/svg" viewBox="0 0 91.22 91.22"><defs><style>.cls-1{fill:#f9c7c7;}.cls-2{fill:#efa3a3;}.cls-3{fill:#ef3c38;}.cls-4{fill:none;}.cls-5{fill:#d12f2f;}</style></defs><g id="Layer_2" data-name="Layer 2"><g id="Layer_1-2" data-name="Layer 1"><rect class="cls-1" width="91.22" height="91.22" rx="13.85"/><path class="cls-2" d="M77.37,0H45.61V91.22H77.37A13.85,13.85,0,0,0,91.22,77.37V13.85A13.85,13.85,0,0,0,77.37,0Z"/><path class="cls-3" d="M79.65,27.11A15.9,15.9,0,0,0,67,12a31.49,31.49,0,0,0-5.48-.52H29.89a18.58,18.58,0,0,0-2.36,0,34,34,0,0,0-5.4,1.09A15.78,15.78,0,0,0,11.61,27V45.52c0,5.79-.09,11.59,0,17.38a19.56,19.56,0,0,0,.68,5.44A15.91,15.91,0,0,0,27.72,79.71c11.85.13,23.67.09,35.56,0a19.29,19.29,0,0,0,5.78-1.06A16.17,16.17,0,0,0,79.65,63.46c-.08-11.85,0-23.71,0-35.56ZM67.55,46.67A21.69,21.69,0,0,1,45,67.5,21.93,21.93,0,1,1,67.56,46C67.56,46.2,67.56,46.43,67.55,46.67Zm-.23-18.93a3.54,3.54,0,0,1-3.63-3.4v-.11A3.4,3.4,0,0,1,67,20.75,3.53,3.53,0,0,1,70.7,24,3.75,3.75,0,0,1,67.32,27.74Z"/><path class="cls-4" d="M45,67.49C32.85,67.37,23.21,56.86,23.6,44.82A22.16,22.16,0,0,1,46.54,23.65a21.94,21.94,0,0,1-.83,43.86Zm.73-4.58A17.34,17.34,0,1,0,28.23,45.84C28.38,54.57,35.59,63.13,45.76,62.91Z"/><path class="cls-4" d="M70.7,24a3.75,3.75,0,0,1-3.39,3.67,3.53,3.53,0,0,1-3.62-3.4,3.39,3.39,0,0,1,3.19-3.59H67A3.54,3.54,0,0,1,70.7,24Z"/><path class="cls-3" d="M45.76,62.91c-10.2.22-17.38-8.34-17.53-17.07A17.41,17.41,0,1,1,45.76,62.91Z"/><path class="cls-5" d="M79.66,27.09A15.9,15.9,0,0,0,67,12a31.37,31.37,0,0,0-5.47-.52H45.61V23.62h1a19.08,19.08,0,0,1,2.24.22A21.8,21.8,0,0,1,67.58,46c0,.23,0,.46,0,.7a21.69,21.69,0,0,1-22,20.84V79.77c5.89,0,11.78,0,17.69-.08a19.23,19.23,0,0,0,5.77-1.06A16.14,16.14,0,0,0,79.66,63.44c-.08-11.85,0-23.71,0-35.56ZM70.72,24a3.76,3.76,0,0,1-3.39,3.7,3.54,3.54,0,0,1-3.63-3.4v0a3.39,3.39,0,0,1,3.2-3.59H67A3.56,3.56,0,0,1,70.72,24Z"/><path class="cls-5" d="M45.66,28.27h-.08V62.93h.19a17.34,17.34,0,0,0-.11-34.67Z"/></g></g></svg>