<svg xmlns="http://www.w3.org/2000/svg" viewBox="0 0 100 99.87"><defs><style>.cls-1{fill:#d83636;}.cls-2{fill:#892424;}.cls-3{fill:#fff;}.cls-4{fill:#09ad4f;}.cls-5{fill:#0e8c41;}</style></defs><g id="Layer_2" data-name="Layer 2"><g id="Layer_1-2" data-name="Layer 1"><rect class="cls-1" width="100" height="99.87"/><polygon class="cls-2" points="100 99.87 56.32 99.87 27.48 75.3 68.53 34.25 100 65.92 100 99.87"/><path class="cls-3" d="M69.47,51.61c.68,10.42-1.55,18.46-8.78,24.44-5.83,4.84-16.61,6.7-23.83,1.63-8.8-6.18-12-14.75-10.47-25.21,1.08-7.42,4-14.28,6.85-21.13,1.25-2.95,2.59-5.87,4.06-8.72,4.94-9.55,17.06-8.49,22.28-.34,3.3,5.16,5,11,6.69,16.86C67.58,43.68,68.63,48.29,69.47,51.61ZM62.3,55.45a20,20,0,0,0-4.49-10.71C55,41.3,51.47,40.05,47.17,41.35a19.26,19.26,0,0,0-10.44,7.29c-3.59,5-3.58,10.91.21,15.78A16.41,16.41,0,0,0,51.5,71a10.64,10.64,0,0,0,9-5.64C62.28,62.22,62.46,58.76,62.3,55.45Z"/><path class="cls-4" d="M73.62,55c.56,9.13-1.77,19-10.76,25.86-11,8.39-27.5,7.74-36.45-7.22-4.83-8.06-4.84-16.53-2.7-25.24,2.41-9.81,6.48-19,10.69-28.13,1.76-3.82,4.19-7.21,8.34-8.87a15.64,15.64,0,0,1,17.06,4c3.09,3.28,4.69,7.34,6.22,11.45A137.16,137.16,0,0,1,73.62,55Z"/><path class="cls-5" d="M66,26.81c-1.53-4.11-3.13-8.17-6.22-11.45a15.74,15.74,0,0,0-15.06-4.6c7.85,10.56,9.77,37,9.44,58.23-.12,8-1.55,9.78-2.1,16.77a27.18,27.18,0,0,0,10.78-4.91C71.85,74,74.18,64.12,73.62,55A137.16,137.16,0,0,0,66,26.81Z"/></g></g></svg>