<svg xmlns="http://www.w3.org/2000/svg" viewBox="0 0 100 99.87"><defs><style>.cls-1{fill:#4ad3c6;}.cls-2{fill:#1e9e95;}.cls-3{fill:#ff852e;}.cls-4{fill:#f27520;}</style></defs><g id="Layer_2" data-name="Layer 2"><g id="Layer_1-2" data-name="Layer 1"><rect class="cls-1" width="100" height="99.87"/><path class="cls-2" d="M100,99.87H46.54L18.36,78.57A46.08,46.08,0,0,0,48.67,68.36c.09-.07-16-5.85-15.94-5.92,13.94-11.52,33.05-21.8,33.52-25.29L100,62.45Z"/><path class="cls-3" d="M16.79,72.7c.41-2.57-.32-1.11.58-3.5.11-.31,2.15-.81,2.24-1.12.29-.2.73-1.76,1-2A1.12,1.12,0,0,1,21.8,66c2.22.74,4.44,1.51,6.68,2.17a39.58,39.58,0,0,0,10.66,1.37c.84,0,1.69,0,2.52-.05,1.06-.08,2.13-.17,3.18-.35,1.28-.21,2.55-.52,3.83-.78-.59.54-1.19,1.11-1.81,1.66-1.57,1.4-3.16,2.78-4.7,4.21a28,28,0,0,1-6.38,4.48,18.65,18.65,0,0,1-17,.41,1.43,1.43,0,0,1-.78-.75c-.28-.69-.07-3-.35-3.65C17.86,74.29,16.71,73.24,16.79,72.7Z"/><path class="cls-3" d="M54.25,17.37l-.11.26-.78-.42c0,.26-.07.48-.09.7-.2,2-.33,4-.61,6a14.44,14.44,0,0,1-3.39,7.64,14,14,0,0,1-5.17,3.6c-2.26,1-4.54,1.86-6.8,2.8a20.57,20.57,0,0,0-7.45,5,14,14,0,0,0-3.77,11.57,9.34,9.34,0,0,0,4.74,6.89,24.69,24.69,0,0,0,6.39,2.66A71.8,71.8,0,0,0,45.42,66a2.15,2.15,0,0,0,.8,0,20.78,20.78,0,0,1,11.32.79,1.63,1.63,0,0,0,.52.12,58.31,58.31,0,0,0,12.56-1.53,13.92,13.92,0,0,0,5.82-2.85,9.43,9.43,0,0,0,3.19-6.32c.74-6.11-1.76-10.81-6.43-14.48-1.66-1.3-3.53-2.32-5.31-3.48-1.43-.93-2.94-1.78-4.29-2.82a12.48,12.48,0,0,1-4.79-9.16c-.15-1.77-.09-3.57-.11-5.36a.66.66,0,0,0-.38-.67c-.88-.5-1.75-1-2.58-1.56A19.19,19.19,0,0,1,54.25,17.37Z"/><path class="cls-4" d="M52.86,65.62c.69.17,4,.86,4.68,1.1a1.63,1.63,0,0,0,.52.12,58.31,58.31,0,0,0,12.56-1.53,13.92,13.92,0,0,0,5.82-2.85,9.43,9.43,0,0,0,3.19-6.32c.74-6.11-1.76-10.81-6.43-14.48-1.66-1.3-3.53-2.32-5.31-3.48-1.43-.93-2.94-1.78-4.29-2.82a12.48,12.48,0,0,1-4.79-9.16c-.15-1.77-.09-3.57-.11-5.36a.66.66,0,0,0-.38-.67c-.88-.5-1.75-1-2.58-1.56-.09-.06-.79-.64-.87-.7a127.06,127.06,0,0,1-.73,41.77C53.75,61.71,53.33,63.69,52.86,65.62Z"/></g></g></svg>