<svg xmlns="http://www.w3.org/2000/svg" viewBox="0 0 100 100"><defs><style>.cls-1{fill:#ea4c93;}.cls-2{fill:#af2772;}.cls-3{fill:#9cd34f;}.cls-4{fill:#88c341;}.cls-5{fill:#649321;}</style></defs><g id="Layer_2" data-name="Layer 2"><g id="Layer_1-2" data-name="Layer 1"><rect class="cls-1" width="100" height="100"/><polygon class="cls-2" points="100 100 59.1 100 28.29 74.38 76.34 26.34 100 50.26 100 100"/><path class="cls-3" d="M27.86,25.9a34,34,0,1,1,0,48.05A34,34,0,0,1,27.86,25.9Zm2,46a31.17,31.17,0,1,0,.11-44.11A31.17,31.17,0,0,0,29.82,71.94Z"/><path class="cls-3" d="M44.52,21.62A7.33,7.33,0,0,1,48,19.9,17.16,17.16,0,0,1,56,19.76a6.79,6.79,0,0,1,3.41,1.63,3.09,3.09,0,0,1,.92,3c-.37,1.66-.94,3.27-1.47,4.88C57.5,33.51,56,37.68,54.54,41.85,54,43.43,53.39,45,52.83,46.6a1,1,0,0,1-.95.75,1,1,0,0,1-.93-.77L46.14,32.21c-.77-2.31-1.55-4.61-2.32-6.92a3.34,3.34,0,0,1,.29-3.17A5.8,5.8,0,0,1,44.52,21.62Z"/><path class="cls-4" d="M49,53c.26-.26.52-.5.76-.77a.86.86,0,0,1,.93-.26.9.9,0,0,1,.67.77,3.93,3.93,0,0,1,0,1c-.34,4.65-.7,9.3-1,14-.2,2.67-.39,5.35-.59,8a3.3,3.3,0,0,1-2.58,3.07,8.19,8.19,0,0,1-3.52,0A17.37,17.37,0,0,1,36.36,76a7.22,7.22,0,0,1-2.54-2.75,3.15,3.15,0,0,1,.35-3.44c1.12-1.49,2.36-2.9,3.6-4.3,2-2.28,4-4.57,6.09-6.84,1.26-1.4,2.56-2.77,3.84-4.16L49,53.05Z"/><path class="cls-4" d="M75.22,69.06A8.47,8.47,0,0,1,72,71.31a3.16,3.16,0,0,1-3.56-.8A40.22,40.22,0,0,1,65.55,67c-1.7-2.17-3.37-4.36-5-6.56s-3.2-4.3-4.8-6.45c-.53-.71-1-1.45-1.57-2.15a.86.86,0,0,1-.06-1.08.93.93,0,0,1,1.11-.39L61.11,52,76.9,56.3c2.1.57,3,2.11,2.71,4.39a14.68,14.68,0,0,1-2.34,5.76A13.94,13.94,0,0,1,75.22,69.06Z"/><path class="cls-3" d="M72.73,27.78a12.09,12.09,0,0,1,2.84,3.85,3.66,3.66,0,0,1-.23,3.86,5.17,5.17,0,0,1-1.47,1.21c-2.62,1.66-5.29,3.24-8,4.77-3.78,2.15-7.58,4.27-11.36,6.4-.57.32-.93.32-1.29,0s-.39-.7-.15-1.28Q56.57,38.2,60,29.81c.54-1.29,1.06-2.59,1.6-3.89a3.4,3.4,0,0,1,4.08-2.23,11.75,11.75,0,0,1,4.45,2A15.16,15.16,0,0,1,72.73,27.78Z"/><path class="cls-3" d="M27.68,67.62a17.11,17.11,0,0,1-4.48-8.43,6,6,0,0,1,0-2.28A3.33,3.33,0,0,1,26,54.2c5.44-1.16,10.93-2.07,16.42-2.94l6.1-1a1,1,0,0,1,1.12.45c.24.44.15.78-.26,1.22l-7,7.59-6,6.57c-.64.7-1.28,1.4-1.91,2.12a3.55,3.55,0,0,1-5.19.66A9.87,9.87,0,0,1,27.68,67.62Z"/><path class="cls-4" d="M65.54,75.93a12.51,12.51,0,0,1-3.32,2,16.18,16.18,0,0,1-7,1.5,6.32,6.32,0,0,1-1.93-.34,3.34,3.34,0,0,1-2.4-3.31c0-3.66.1-7.33.25-11q.26-6,.61-12.1a.89.89,0,0,1,.68-.89.93.93,0,0,1,1.09.44c.79,1.1,1.56,2.21,2.35,3.32q3,4.22,6,8.42c1.6,2.27,3.21,4.52,4.8,6.79C67.76,72.36,67.49,74,65.54,75.93Z"/><path class="cls-4" d="M80.8,53.58a3.1,3.1,0,0,1-2.73,1c-2.65-.32-5.27-.83-7.88-1.33-2.9-.56-5.79-1.12-8.68-1.71-2.1-.43-4.2-.89-6.31-1.34-.54-.11-.81-.36-.85-.84a1,1,0,0,1,.64-1L61.6,45,75.27,38.2a3.44,3.44,0,0,1,4.38,1.08,14.06,14.06,0,0,1,2.5,6.77,12.73,12.73,0,0,1-.3,5.69A4.2,4.2,0,0,1,80.8,53.58Z"/><path class="cls-3" d="M24.33,37.44a3.32,3.32,0,0,1,4.26-.66c3,1.5,5.85,3.13,8.72,4.79,3.71,2.15,7.4,4.33,11.09,6.49.55.32.74.67.64,1.12s-.41.68-1,.76L32.7,52c-2.42.33-4.84.7-7.28,1a3.2,3.2,0,0,1-3.52-2.32,11.22,11.22,0,0,1-.59-4.52,16.87,16.87,0,0,1,1.53-6.51A7.13,7.13,0,0,1,24.33,37.44Z"/><path class="cls-3" d="M31.79,27.5a14.71,14.71,0,0,1,5.9-3.81,5,5,0,0,1,2.16-.26,3.43,3.43,0,0,1,2.82,2.31c.83,2,1.61,3.93,2.37,5.91,2,5.11,3.81,10.25,5.63,15.41a1,1,0,0,1-.22,1.19,1,1,0,0,1-1.25,0l-19-11.81a3.42,3.42,0,0,1-1.59-4.48,10.79,10.79,0,0,1,2.18-3.46C31.12,28.13,31.47,27.82,31.79,27.5Z"/><path class="cls-5" d="M76.34,26.34l-2,2A31.17,31.17,0,0,1,30.28,72.39l-2,2a34,34,0,0,0,48.05-48Z"/><path class="cls-5" d="M47.08,78.79a8.4,8.4,0,0,1-3.53,0A17.38,17.38,0,0,1,36.36,76a7.2,7.2,0,0,1-2.54-2.74,3.15,3.15,0,0,1,.35-3.44c1.12-1.5,2.36-2.9,3.6-4.3,1.53-1.71,3-3.43,4.57-5.14.5-.57,1-1.14,1.53-1.71,1.26-1.4,2.56-2.77,3.83-4.16.44-.46.86-.94,1.29-1.42h0l.76-.76a.86.86,0,0,1,.93-.27.93.93,0,0,1,.66.77,3.57,3.57,0,0,1,0,1q-.51,7-1,13.94c-.2,2.68-.38,5.35-.59,8A3.31,3.31,0,0,1,47.08,78.79Z"/><path class="cls-5" d="M75.22,69.05A8.36,8.36,0,0,1,72,71.31a3.19,3.19,0,0,1-3.57-.8A43.84,43.84,0,0,1,65.55,67q-2.53-3.27-5-6.57c-1.61-2.14-3.2-4.29-4.79-6.45-.53-.71-1-1.44-1.58-2.14a.86.86,0,0,1,0-1.08.91.91,0,0,1,1.1-.4L61.11,52,76.9,56.3c2.1.57,3.06,2.11,2.72,4.39a15.05,15.05,0,0,1-2.34,5.76A14,14,0,0,1,75.22,69.05Z"/><path class="cls-5" d="M73.87,36.69c-2.62,1.67-5.29,3.24-8,4.78-3.58,2-7.16,4-10.75,6.06L73.79,28.88a10.74,10.74,0,0,1,1.78,2.74,3.68,3.68,0,0,1-.22,3.87A4.89,4.89,0,0,1,73.87,36.69Z"/><path class="cls-5" d="M65.54,75.93a12.35,12.35,0,0,1-3.32,2,16,16,0,0,1-7,1.49,6.07,6.07,0,0,1-1.93-.33,3.35,3.35,0,0,1-2.4-3.31c0-3.67.1-7.33.26-11,.17-4,.36-8.07.61-12.1a.88.88,0,0,1,.68-.89.92.92,0,0,1,1.08.43l2.35,3.32,6,8.43c1.6,2.26,3.22,4.52,4.8,6.79C67.76,72.35,67.49,74,65.54,75.93Z"/><path class="cls-5" d="M80.8,53.57a3,3,0,0,1-2.73,1c-2.65-.31-5.26-.82-7.88-1.32L61.52,51.5c-2.11-.43-4.21-.89-6.31-1.34-.55-.12-.81-.37-.85-.85a1,1,0,0,1,.64-1c2.2-1.11,4.41-2.2,6.61-3.3L75.28,38.2a3.41,3.41,0,0,1,4.37,1.08A14.14,14.14,0,0,1,82.16,46a12.78,12.78,0,0,1-.31,5.7A4,4,0,0,1,80.8,53.57Z"/><path class="cls-5" d="M50.67,52l-8.33,8.33c.5-.57,1-1.14,1.53-1.71,1.26-1.4,2.56-2.77,3.83-4.16.44-.46.86-.94,1.29-1.42h0l.76-.76A.86.86,0,0,1,50.67,52Z"/></g></g></svg>