<svg xmlns="http://www.w3.org/2000/svg" viewBox="0 0 100 100"><defs><style>.cls-1{fill:#c470a4;}.cls-2{fill:#892c63;}.cls-3{fill:#88c341;}.cls-4{fill:#659324;}</style></defs><g id="Layer_2" data-name="Layer 2"><g id="Layer_1-2" data-name="Layer 1"><rect class="cls-1" width="100" height="100"/><path class="cls-2" d="M100,100H38.91L13.78,80.61A87.45,87.45,0,0,0,30.43,74,86.54,86.54,0,0,0,49.1,61.28q3.84-6.42,7.67-12.86l11-11.81,8.32-18.24L100,38.12Z"/><path class="cls-3" d="M76.51,44.57l-1.37-2.81c1.14-.25,2.21-.44,3.27-.71.31-.08.76-.31.83-.56.14-.48-.18-.81-.72-.9a4.7,4.7,0,0,1-.93-.41,9.59,9.59,0,0,1,1.18-.82c.56-.28,1.15-.49,1.73-.73A1.69,1.69,0,0,0,81,34.55a6.28,6.28,0,0,0-3.4-1.18c-1.58-.26-3.16-.54-4.72-.9-.4-.09-1-.52-1-.82a1.8,1.8,0,0,1,.7-1.21,11.93,11.93,0,0,1,5.15-2.15l2.91-.71a2,2,0,0,0-2.69-1.83c-.83.2-1.15,0-1.34-.77a1.15,1.15,0,0,1,.8-1.61c.54-.21,1.29-.08,1.45-.94S78.6,21,77.64,21.11c-.43.06-.85.19-1.43.32a8.54,8.54,0,0,1,.4-1.57c.34-.72.25-1.26-.52-1.49a10.83,10.83,0,0,0-1.91-.21c0-.13-.07-.36-.11-.58-.23-1.46-1.15-2-2.5-1.38a13,13,0,0,0-2.07,1.5,6.6,6.6,0,0,0-.66.74,10.72,10.72,0,0,0-.77-1.07,4.52,4.52,0,0,0-1.15-1.08c-1.18-.6-1.88-.13-1.85,1.16,0,.42,0,.83.08,1.25s.1.79.18,1.46c-.37-.34-.55-.48-.69-.64-.33-.39-.64-.8-1-1.17-.49-.54-1-1.1-1.83-.75s-.76,1.26-.51,1.94c1,2.79,2.14,5.55,3.17,8.33.57,1.56,1.06,3.15,1.57,4.73.18.55-.06.81-.59,1a1.82,1.82,0,0,1-2.46-1,13.84,13.84,0,0,1-1-3.23c-.34-1.9-.5-3.83-.82-5.74A22.9,22.9,0,0,0,60.45,21c-1.72,1.13-1.91,1.07-2.66-.65-.43-1-.81-2-2-2.33s-1.68,0-2,1.06a17.84,17.84,0,0,0-.3,1.81c-.57-.7-1-1.24-1.45-1.77a19.84,19.84,0,0,0-1.4-1.62c-.6-.57-1-.42-1.16.38a5.27,5.27,0,0,0,.61,3.88c.51.8,1,1.62,1.45,2.46a2.93,2.93,0,0,1,.17,2.56,6.84,6.84,0,0,0-1.07-1.08c-.43-.27-1.06-.63-1.4-.48a1.55,1.55,0,0,0-.53,1.35,10.43,10.43,0,0,0,.91,3,13.92,13.92,0,0,0,2,2.61,27.69,27.69,0,0,1,5.61,10.38,8.8,8.8,0,0,1,.34,2.46,1.74,1.74,0,0,1-1.11,1.78,1.51,1.51,0,0,1-1.83-.57,18.12,18.12,0,0,1-2.28-3.18c-2.1-4.17-4-8.43-6.14-12.61-.9-1.81-2-3.53-3-5.24a4.8,4.8,0,0,0-1.19-1c-.32.47-.63.95-.94,1.43a2.1,2.1,0,0,0-.14.47c-.91-1.34-2-2.41-3.62-1.67s-1.73,2.5-1.68,4.23l-1.12-1.3a19.89,19.89,0,0,0-1.39-1.63c-.89-.83-1.68-.76-2.25.32a3.76,3.76,0,0,0-.43,2.12c.21,1.61.63,3.2,1,4.8.08.37.15.73.23,1.09l-.2.14a10.57,10.57,0,0,1-1-.64c-.46-.38-.86-.82-1.32-1.21-1.07-.9-1.77-.68-2.23.67a2.48,2.48,0,0,0,.4,2.37c.7.92,1.49,1.78,2.25,2.65.43.48.89.94,1.43,1.51-1.83.62-3.83.35-5.44,1.88,1.13.93,2.13,1.86,3.24,2.62,2,1.34,4.09,2.46,6,3.88a24.07,24.07,0,0,1,9,13.89,1.59,1.59,0,0,1-.58,1.78A82.5,82.5,0,0,1,29,73.83a88.61,88.61,0,0,1-15.23,6.78.31.31,0,0,0-.24.29c2.38-.72,4.79-1.34,7.13-2.18A82.47,82.47,0,0,0,40.11,69a51,51,0,0,0,5.14-3.85,7.71,7.71,0,0,1,5.3-2,25.23,25.23,0,0,1,5.14.39c4.5.92,8.94,2.1,12.78,4.81,1.62,1.14,3.36,1,5.2.43l-.11-2.31c.74,0,1.44,0,2.14-.06.53,0,1.07-.06,1.6-.14,1.17-.2,1.56-.86,1.16-2-.21-.59-.49-1.16-.75-1.72s-.14-.84.44-1c.88-.25,1.77-.52,2.64-.81,1.14-.38,1.44-.91,1-2a12.43,12.43,0,0,0-1.2-2.39A5.34,5.34,0,0,1,80,52a11.3,11.3,0,0,0,.24-1.84c0-.42-.22-.61-.7-.54-.78.12-1.58.17-2.42.26a3,3,0,0,1-.13-.44c-.28-2-1.17-2.84-3.18-2.65-1.86.18-3.68.65-5.52,1-1.57.32-3.13.72-4.72,1a6.3,6.3,0,0,1-2.11-.16,2,2,0,0,1-1.59-1.74,5.09,5.09,0,0,1,1.07-.34c2.72-.27,5.45-.47,8.16-.77,2.16-.24,4.3-.58,6.45-.89A6,6,0,0,0,76.51,44.57Z"/><path class="cls-4" d="M78.55,64.16a18.73,18.73,0,0,0-.76-1.72c-.24-.51-.14-.83.44-1,.88-.26,1.75-.53,2.62-.82a1.59,1.59,0,0,0,1-2.08,13,13,0,0,0-1.19-2.35A5.32,5.32,0,0,1,80,51.92a10.54,10.54,0,0,0,.24-1.84c0-.42-.22-.62-.7-.54-.79.12-1.59.18-2.42.27a3.15,3.15,0,0,1-.14-.44c-.28-2-1.18-2.84-3.19-2.63-1.85.19-3.68.66-5.51,1-1.57.32-3.13.74-4.72,1a6.59,6.59,0,0,1-2.11-.16,2,2,0,0,1-1.59-1.73,5.48,5.48,0,0,1,1.06-.35c2.72-.28,5.45-.49,8.16-.81,2.15-.24,4.3-.59,6.44-.91a6.15,6.15,0,0,0,1-.34l-1.37-2.78a0,0,0,0,1,0,0c1.14-.25,2.2-.44,3.24-.72.32-.08.76-.31.84-.56.13-.49-.19-.81-.73-.9a4.16,4.16,0,0,1-.93-.41,10.84,10.84,0,0,1,1.18-.82c.55-.28,1.15-.49,1.72-.74a1.7,1.7,0,0,0,.5-3.08,6.32,6.32,0,0,0-3.41-1.16c-1.58-.26-3.17-.52-4.73-.88-.4-.09-1-.51-1-.82a1.82,1.82,0,0,1,.7-1.21,12,12,0,0,1,5.13-2.18l2.9-.71s0,0,0,0a2,2,0,0,0-2.7-1.8c-.82.2-1.14,0-1.34-.76s0-1.29.79-1.62c.5-.2,1.19-.1,1.41-.77.31-1-.39-1.65-1.38-1.46-.37.07-.74.18-1.23.3a8.45,8.45,0,0,1,.4-1.58c.33-.7.24-1.22-.46-1.46-2.72,4.27-6.35,10.23-10.35,17.65-1.9,3.53-1.89,3.7-2.92,5.4-.32.53-.7,1.15-1.17,1.87-3.54,5.49-12.1,15-12.1,15-4,4.39-5.93,6.59-7.25,7.81-5.14,4.73-9.22,7-9.09,7.21s9.37-5.87,10.5-6.66h0c.41-.36,1-.79,1.69-1.39a7.64,7.64,0,0,1,5.29-2,24.57,24.57,0,0,1,5.14.36c4.51.9,9,2.06,12.8,4.75,1.62,1.13,3.35,1,5.19.41a0,0,0,0,0,0,0c0-.72-.08-1.44-.12-2.27a0,0,0,0,1,0,0c.73,0,1.42,0,2.11-.07a14.2,14.2,0,0,0,1.6-.15C78.57,66,79,65.29,78.55,64.16Z"/></g></g></svg>