<svg xmlns="http://www.w3.org/2000/svg" viewBox="0 0 100 100"><defs><style>.cls-1{fill:#88c341;}.cls-2{fill:#659324;}.cls-3{fill:#ef3c38;}.cls-4{fill:#cc2727;}</style></defs><g id="Layer_2" data-name="Layer 2"><g id="Layer_1-2" data-name="Layer 1"><rect class="cls-1" width="100" height="100"/><path class="cls-2" d="M100,100H45.44L12.65,72.19A70.06,70.06,0,0,0,55.72,55.1,69.59,69.59,0,0,0,77.34,19L100,44Z"/><path class="cls-3" d="M19.81,74.32c-2-.5-4-1-6-1.51a3.66,3.66,0,0,1-1-.48c-.15-.09-.32-.34-.29-.47a.65.65,0,0,1,.45-.35c.5-.07,1-.09,1.54-.11a48.4,48.4,0,0,0,17.8-4.46A62.43,62.43,0,0,0,59.43,43.79a41.15,41.15,0,0,0,2.37-4A15.72,15.72,0,0,1,69.7,32c.85-.37,1.65-.85,2.5-1.23A2.79,2.79,0,0,0,74,28c0-1.67,0-3.34.1-5a11.51,11.51,0,0,1,.41-2.68,2.52,2.52,0,0,1,.94-1.17,1.69,1.69,0,0,1,1.9-.15,1.61,1.61,0,0,1,.79,1.68,30.87,30.87,0,0,1-.47,3.16c-.38,1.94-.83,3.86-1.24,5.8a5.89,5.89,0,0,0,1.29,5.39,5.7,5.7,0,0,1,.69,6.69,14.61,14.61,0,0,0-.6,2,28.89,28.89,0,0,1-6,10.14A56.92,56.92,0,0,1,56.47,66.15a66.31,66.31,0,0,1-20.9,7.58,55.52,55.52,0,0,1-15.72.45Z"/><path class="cls-4" d="M76.76,33.55A109,109,0,0,1,61.16,54.4a108.56,108.56,0,0,1-24.3,19,68.09,68.09,0,0,0,19.61-7.32A56.92,56.92,0,0,0,71.8,53.88a28.89,28.89,0,0,0,6-10.14,14.61,14.61,0,0,1,.6-2A5.7,5.7,0,0,0,77.71,35,6.23,6.23,0,0,1,76.76,33.55Z"/></g></g></svg>