<svg xmlns="http://www.w3.org/2000/svg" viewBox="0 0 100 100"><defs><style>.cls-1{fill:#72518e;}.cls-2{fill:#3f2056;}.cls-3{fill:#f1b517;}.cls-4{fill:#c98f1b;}</style></defs><g id="Layer_2" data-name="Layer 2"><g id="Layer_1-2" data-name="Layer 1"><rect class="cls-1" width="100" height="100"/><polygon class="cls-2" points="100 100 27.77 100 17.34 89.57 91.11 15.81 100 24.17 100 100"/><path class="cls-3" d="M55.71,19.55a18.72,18.72,0,0,1,.62,8.25c-.13.95-.11,1.67,1.23,1.52.47-2.09,1.61-3.46,4-3.26.37-1.89,1.24-3.18,3.32-3.24a1,1,0,0,0,.69-.58A3.23,3.23,0,0,1,69,20c1-2.38,1.68-2.83,3.81-2.42a5.16,5.16,0,0,1,.65-1.38,2.73,2.73,0,0,1,1.48-1c1.55-.14,3.13-.05,4.56-.05a15.58,15.58,0,0,1,1.73-2.22,1.57,1.57,0,0,1,2.57.45c.12.34-.3,1.28-.48,1.28-2.4,0-3.29,1.49-3.58,3.53-3.13.28-3.34.48-4,3.7-3.68.83-4.11,1.26-4.15,4-1,.22-2.12.18-2.85.71A4.81,4.81,0,0,0,67.32,29c-.21.76-.29,1.16-1.23,1.13a3.49,3.49,0,0,0-3.51,3.15,1.61,1.61,0,0,1-.87,1.08c-3.32.79-3.84,1.35-4.08,4.66-4.38-.07-4.94,1.31-5,4.82-1.34-.38-1.81.49-2.36,1.48A131.56,131.56,0,0,1,36.11,65.52a3.54,3.54,0,0,0-.84,1.58L88.71,13.67c2.54,1.72,2.78,3,1.09,5,1,2.22.51,2.92-2.13,4.35a22.69,22.69,0,0,1-.49,4.49c-.28.92-1.31,1.62-2.15,2.57.37,1.24.24,2.52-2.46,3.48-.58,2.51-.77,2.75-3,3.64,0,1.89-.71,3.22-2.72,3.64a.92.92,0,0,0-.59.64c-.07,2.17-1.49,3-3.32,3.41,0,2.43-.77,3.34-3.34,4.15,0,2.45-1.11,4.1-4,4.34-.34,1,0,1.4,1,1.53,1.63.2,3.26.45,4.88.73a12.6,12.6,0,0,1,1.57.46,4.4,4.4,0,0,1-.39.62c-7.06,6.84-14,13.84-21.22,20.45a38.69,38.69,0,0,1-20.14,10,20.77,20.77,0,0,1-3.75.4A6.2,6.2,0,0,0,22.21,90,7.59,7.59,0,0,1,21,91.06,1.54,1.54,0,0,1,18.72,91Q14.86,87,11,83.07c-.82-.84-1-1.87-.06-2.54,2.74-2,3.2-4.82,3.59-8,.88-6.89,4.23-12.81,8.18-18.39C28.08,46.6,34.55,40,41.15,33.51c4.46-4.37,9-8.68,13.47-13C54.9,20.23,55.2,20,55.71,19.55Z"/><path class="cls-4" d="M73.05,56.12a12.6,12.6,0,0,0-1.57-.46c-1.62-.28-3.25-.53-4.88-.73-1-.13-1.35-.58-1-1.53,2.91-.24,4-1.89,4-4.34,2.57-.81,3.31-1.72,3.34-4.15,1.83-.42,3.25-1.24,3.32-3.41a.92.92,0,0,1,.59-.64c2-.42,2.77-1.75,2.72-3.64,2.22-.89,2.41-1.13,3-3.64,2.7-1,2.83-2.24,2.46-3.48.84-1,1.87-1.65,2.15-2.57A22.69,22.69,0,0,0,87.67,23c2.64-1.43,3.12-2.13,2.13-4.35,1.69-2,1.45-3.3-1.09-5L35.27,67.1a3.53,3.53,0,0,1,.16-.52l-20.5,20.5L18.72,91a1.54,1.54,0,0,0,2.32.11A7.59,7.59,0,0,0,22.21,90a6.2,6.2,0,0,1,5.34-2.37,20.77,20.77,0,0,0,3.75-.4,38.69,38.69,0,0,0,20.14-10C58.7,70.58,65.6,63.58,72.66,56.74A4.4,4.4,0,0,0,73.05,56.12Z"/></g></g></svg>