<svg xmlns="http://www.w3.org/2000/svg" viewBox="0 0 297.27 109.08"><defs><style>.cls-1{fill:#00c3ba;}</style></defs><g id="Layer_2" data-name="Layer 2"><g id="Layer_1-2" data-name="Layer 1"><path class="cls-1" d="M8.27,56.7h0A5.73,5.73,0,0,1,14,62.1L16.34,103a5.73,5.73,0,0,1-5.72,6H6a5.73,5.73,0,0,1-5.72-6L2.56,62.1A5.72,5.72,0,0,1,8.27,56.7ZM0,44.52a8.5,8.5,0,0,1,.63-3.27,8.19,8.19,0,0,1,1.75-2.67A7.78,7.78,0,0,1,5,36.81a8.3,8.3,0,0,1,3.25-.63,8.36,8.36,0,0,1,3.22.63,8.09,8.09,0,0,1,2.67,1.77,8.3,8.3,0,0,1,1.79,2.67,8.17,8.17,0,0,1,.66,3.27,7.71,7.71,0,0,1-.66,3.18,8.5,8.5,0,0,1-4.46,4.42,8.2,8.2,0,0,1-3.22.65,8.08,8.08,0,0,1-5.87-2.45A8.3,8.3,0,0,1,.63,47.7,8,8,0,0,1,0,44.52Z"/><path class="cls-1" d="M96.52,60.58a35,35,0,0,1-1.29,9.53,36.24,36.24,0,0,1-3.61,8.58A35.48,35.48,0,0,1,86,86a36.67,36.67,0,0,1-7.27,5.65,35.84,35.84,0,0,1-27.67,3.64,35.75,35.75,0,0,1-8.59-3.64,36.52,36.52,0,0,1-12.95-13,35.48,35.48,0,0,1-3.63-8.58,35.81,35.81,0,0,1,3.63-27.67,36.74,36.74,0,0,1,5.65-7.28,35.71,35.71,0,0,1,7.3-5.62,36.93,36.93,0,0,1,8.59-3.62,36.19,36.19,0,0,1,19.08,0,36.22,36.22,0,0,1,8.59,3.62A35.88,35.88,0,0,1,95.23,51,35.34,35.34,0,0,1,96.52,60.58Zm-13.82,0A21.59,21.59,0,0,0,81,52,22.07,22.07,0,0,0,69.19,40.21a22.1,22.1,0,0,0-17.24,0,22.65,22.65,0,0,0-7,4.73,22.15,22.15,0,0,0-4.75,7,21.59,21.59,0,0,0-1.75,8.61,21.24,21.24,0,0,0,1.75,8.56A22.35,22.35,0,0,0,52,80.9a22.1,22.1,0,0,0,17.24,0,22.15,22.15,0,0,0,7-4.75,22.75,22.75,0,0,0,4.73-7A21.24,21.24,0,0,0,82.7,60.58ZM61.16,20.66l-5.48-7.22L70.09,0h0a11.57,11.57,0,0,1-3,17Z"/><path class="cls-1" d="M104.23,95.06h0V43.12h3.2l4.37,6.16a23.32,23.32,0,0,1,15.71-6.06h0A11.68,11.68,0,0,1,139.2,54.9v1.51H127.51a10.16,10.16,0,0,0-3.93.77,9.93,9.93,0,0,0-3.2,2.14,9.8,9.8,0,0,0-2.13,3.2,10,10,0,0,0-.78,3.93V81.82A13.24,13.24,0,0,1,104.23,95.06Z"/><path class="cls-1" d="M194.69,95.06h-3.2l-5.15-7.13a41.34,41.34,0,0,1-4,3.18,28.8,28.8,0,0,1-4.44,2.57,27,27,0,0,1-4.77,1.72,19.86,19.86,0,0,1-5,.63,28.62,28.62,0,0,1-10.31-1.84,24.41,24.41,0,0,1-8.44-5.36,25,25,0,0,1-5.7-8.61,30.36,30.36,0,0,1-2.08-11.59,29,29,0,0,1,2.08-11.13,26.54,26.54,0,0,1,5.7-8.71,25.76,25.76,0,0,1,8.44-5.65,26.54,26.54,0,0,1,10.31-2,20.13,20.13,0,0,1,5,.63,25.34,25.34,0,0,1,4.8,1.75,28.75,28.75,0,0,1,4.44,2.62,36.62,36.62,0,0,1,4,3.24l5.15-6.15h3.2ZM181.35,68.63a13.86,13.86,0,0,0-1-5.26,15.33,15.33,0,0,0-2.84-4.51,14.33,14.33,0,0,0-4.2-3.16,11.37,11.37,0,0,0-5.11-1.18,14,14,0,0,0-5.12.92,11.66,11.66,0,0,0-4.17,2.71,12.83,12.83,0,0,0-2.79,4.44,18.39,18.39,0,0,0,0,12.08,12.83,12.83,0,0,0,2.79,4.44A11.66,11.66,0,0,0,163,81.82a14,14,0,0,0,5.12.92,11.37,11.37,0,0,0,5.11-1.18,14.33,14.33,0,0,0,4.2-3.16,15.33,15.33,0,0,0,2.84-4.51A13.82,13.82,0,0,0,181.35,68.63Z"/><path class="cls-1" d="M204.77,95.06h0V35.79a13.34,13.34,0,0,1,13.34-13.33h0V81.73A13.33,13.33,0,0,1,204.77,95.06Z"/><path class="cls-1" d="M248.86,82.36a7.84,7.84,0,0,0,1.56.31c.51,0,1,.07,1.55.07a12.84,12.84,0,0,0,3.73-.53,13.69,13.69,0,0,0,3.37-1.53,12.74,12.74,0,0,0,2.82-2.42,13,13,0,0,0,2-3.18l9.7,9.75a25.66,25.66,0,0,1-4.24,4.7,27.11,27.11,0,0,1-5.19,3.55,26.12,26.12,0,0,1-5.87,2.2A26.74,26.74,0,0,1,252,96a26.37,26.37,0,0,1-10.31-2,26,26,0,0,1-8.44-5.68,26.53,26.53,0,0,1-5.7-8.66,28.44,28.44,0,0,1-2.08-11,29.39,29.39,0,0,1,2.08-11.25,25.45,25.45,0,0,1,14.14-14.26,26.71,26.71,0,0,1,10.31-2,26,26,0,0,1,6.35.78,26.3,26.3,0,0,1,5.89,2.23,27.22,27.22,0,0,1,5.22,3.56,26.26,26.26,0,0,1,4.27,4.73Zm6.79-27.31a7.66,7.66,0,0,0-1.82-.44,18.55,18.55,0,0,0-1.86-.09,13.31,13.31,0,0,0-5.12,1,12.12,12.12,0,0,0-4.17,2.84,13.42,13.42,0,0,0-2.79,4.44,15.79,15.79,0,0,0-1,5.84c0,.49,0,1,.07,1.65a17.79,17.79,0,0,0,.25,1.87c.11.63.25,1.23.41,1.82a6.79,6.79,0,0,0,.63,1.55Z"/><path class="cls-1" d="M289,77.89h0a5.72,5.72,0,0,1-5.71-5.4l-2.32-40.93a5.73,5.73,0,0,1,5.72-6h4.66a5.73,5.73,0,0,1,5.72,6L294.67,72.5A5.72,5.72,0,0,1,289,77.89Zm8.32,12.23a8.17,8.17,0,0,1-.66,3.27A8.06,8.06,0,0,1,294.84,96a8.19,8.19,0,0,1-2.62,1.77,7.83,7.83,0,0,1-3.2.66,8,8,0,0,1-3.25-.66A8.51,8.51,0,0,1,283.13,96a8.14,8.14,0,0,1-1.8-2.64,8.33,8.33,0,0,1-.65-3.27,8,8,0,0,1,.65-3.2,8.16,8.16,0,0,1,1.8-2.62,8.51,8.51,0,0,1,2.64-1.77,8,8,0,0,1,3.25-.66,7.83,7.83,0,0,1,3.2.66,8.19,8.19,0,0,1,2.62,1.77,8.08,8.08,0,0,1,1.77,2.62A7.83,7.83,0,0,1,297.27,90.12Z"/></g></g></svg>