<svg xmlns="http://www.w3.org/2000/svg" viewBox="0 0 217.54 117.22"><defs><style>.cls-1{fill:#00c3ba;}</style></defs><g id="Layer_2" data-name="Layer 2"><g id="Layer_1-2" data-name="Layer 1"><path class="cls-1" d="M6.05,41.49h0a4.2,4.2,0,0,1,4.19,3.95L12,75.4a4.2,4.2,0,0,1-4.19,4.43H4.36A4.19,4.19,0,0,1,.18,75.4L1.87,45.45A4.2,4.2,0,0,1,6.05,41.49ZM0,32.58a6.13,6.13,0,0,1,.46-2.39,5.9,5.9,0,0,1,1.28-2,5.67,5.67,0,0,1,1.92-1.3A6,6,0,0,1,6,26.48a6.05,6.05,0,0,1,2.36.46,5.94,5.94,0,0,1,2,1.3,6.14,6.14,0,0,1,1.31,2,6,6,0,0,1,.48,2.39,5.68,5.68,0,0,1-.48,2.33,6.31,6.31,0,0,1-1.31,1.91,6.16,6.16,0,0,1-2,1.32A5.89,5.89,0,0,1,6,38.62a5.94,5.94,0,0,1-4.29-1.8A6,6,0,0,1,.46,34.91,5.84,5.84,0,0,1,0,32.58Z"/><path class="cls-1" d="M70.63,44.33a25.62,25.62,0,0,1-.94,7,26.84,26.84,0,0,1-2.64,6.28,26.26,26.26,0,0,1-4.12,5.34,26.88,26.88,0,0,1-5.32,4.14,26.44,26.44,0,0,1-6.29,2.66,26.39,26.39,0,0,1-14,0,26.26,26.26,0,0,1-11.63-6.8,26.67,26.67,0,0,1-4.13-5.34,26.07,26.07,0,0,1-2.66-6.28A26.18,26.18,0,0,1,21.6,31.06a26.89,26.89,0,0,1,4.13-5.33,25.86,25.86,0,0,1,5.34-4.11A26.94,26.94,0,0,1,37.36,19a26.39,26.39,0,0,1,14,0,26.41,26.41,0,0,1,6.29,2.65,26,26,0,0,1,5.32,4.11,26.12,26.12,0,0,1,6.76,11.61A25.8,25.8,0,0,1,70.63,44.33Zm-10.11,0A15.81,15.81,0,0,0,59.24,38a16.11,16.11,0,0,0-8.61-8.61,16.31,16.31,0,0,0-12.62,0,16.91,16.91,0,0,0-5.14,3.46A16.26,16.26,0,0,0,29.39,38a15.81,15.81,0,0,0-1.28,6.3,15.56,15.56,0,0,0,1.28,6.27A16.38,16.38,0,0,0,38,59.2a16.19,16.19,0,0,0,12.62,0,16.29,16.29,0,0,0,5.15-3.47,16.81,16.81,0,0,0,3.46-5.13A15.56,15.56,0,0,0,60.52,44.33ZM44.76,15.12l-4-5.29L51.29,0h0a8.47,8.47,0,0,1-2.18,12.41Z"/><path class="cls-1" d="M76.28,69.57h0v-38h2.34l3.19,4.51a17.23,17.23,0,0,1,11.5-4.44h0a8.56,8.56,0,0,1,8.56,8.56v1.1H93.31a7.31,7.31,0,0,0-2.87.57,7.23,7.23,0,0,0-3.91,3.9A7.5,7.5,0,0,0,86,48.63V59.88A9.69,9.69,0,0,1,76.28,69.57Z"/><path class="cls-1" d="M142.47,69.57h-2.34l-3.76-5.22a33.27,33.27,0,0,1-2.93,2.33,22.32,22.32,0,0,1-3.25,1.88,20.23,20.23,0,0,1-3.49,1.26,14.94,14.94,0,0,1-3.64.46,21,21,0,0,1-7.55-1.35A18,18,0,0,1,109.34,65a18.4,18.4,0,0,1-4.17-6.3,22.2,22.2,0,0,1-1.53-8.49,21.15,21.15,0,0,1,1.53-8.14,19.3,19.3,0,0,1,4.17-6.37,18.72,18.72,0,0,1,6.17-4.14,19.46,19.46,0,0,1,7.55-1.47,14.55,14.55,0,0,1,3.65.46,18.79,18.79,0,0,1,3.52,1.28,22,22,0,0,1,3.24,1.91,28,28,0,0,1,2.9,2.38l3.76-4.51h2.34Zm-9.76-19.35a10,10,0,0,0-.76-3.85,11.06,11.06,0,0,0-2.08-3.3,10.43,10.43,0,0,0-3.07-2.31,8.32,8.32,0,0,0-3.74-.87,10.36,10.36,0,0,0-3.75.68,8.45,8.45,0,0,0-3,2,9.34,9.34,0,0,0-2,3.24,13.4,13.4,0,0,0,0,8.84,9.38,9.38,0,0,0,2,3.25,8.45,8.45,0,0,0,3,2,10.35,10.35,0,0,0,3.75.67,8.32,8.32,0,0,0,3.74-.87,10.39,10.39,0,0,0,3.07-2.3A11,11,0,0,0,132,54.07,10,10,0,0,0,132.71,50.22Z"/><path class="cls-1" d="M149.85,69.57h0V26.19a9.76,9.76,0,0,1,9.77-9.76h0V59.81A9.76,9.76,0,0,1,149.85,69.57Z"/><path class="cls-1" d="M182.12,60.27a5.81,5.81,0,0,0,1.13.23c.38,0,.76,0,1.14,0a9.48,9.48,0,0,0,2.73-.39A9.67,9.67,0,0,0,189.59,59a8.91,8.91,0,0,0,2.06-1.77,9.37,9.37,0,0,0,1.47-2.33l7.1,7.14a18.83,18.83,0,0,1-3.11,3.44,19.41,19.41,0,0,1-3.79,2.59,19,19,0,0,1-4.3,1.62,19.8,19.8,0,0,1-12.17-.94,19,19,0,0,1-6.18-4.16,19.49,19.49,0,0,1-4.17-6.33A20.81,20.81,0,0,1,165,50.22,21.46,21.46,0,0,1,166.5,42a19,19,0,0,1,4.17-6.35,18.68,18.68,0,0,1,6.18-4.09,19.59,19.59,0,0,1,7.54-1.45,19.44,19.44,0,0,1,9,2.2,19.88,19.88,0,0,1,3.82,2.61,19.35,19.35,0,0,1,3.12,3.46Zm5-20a5,5,0,0,0-1.33-.32,12.16,12.16,0,0,0-1.37-.08,9.74,9.74,0,0,0-3.74.73,9,9,0,0,0-3.06,2.08,9.87,9.87,0,0,0-2,3.25,11.73,11.73,0,0,0-.74,4.27c0,.36,0,.76.05,1.21A13.19,13.19,0,0,0,175,52.8a13.59,13.59,0,0,0,.3,1.33,5,5,0,0,0,.46,1.13Z"/><path class="cls-1" d="M211.46,57h0a4.19,4.19,0,0,1-4.19-4L205.58,23.1a4.19,4.19,0,0,1,4.18-4.43h3.42a4.19,4.19,0,0,1,4.18,4.43l-1.72,29.95A4.19,4.19,0,0,1,211.46,57Zm6.08,9a6,6,0,0,1-.48,2.39,6.21,6.21,0,0,1-1.29,1.94,6.35,6.35,0,0,1-1.92,1.29,5.76,5.76,0,0,1-2.34.48,5.89,5.89,0,0,1-2.38-.48,6.58,6.58,0,0,1-1.94-1.29,6.09,6.09,0,0,1-1.31-1.94A6,6,0,0,1,205.4,66a5.85,5.85,0,0,1,.48-2.35,6.07,6.07,0,0,1,1.31-1.91,6.42,6.42,0,0,1,1.94-1.3,5.89,5.89,0,0,1,2.38-.48,5.76,5.76,0,0,1,2.34.48,6.1,6.1,0,0,1,3.21,3.21A5.85,5.85,0,0,1,217.54,66Z"/><path class="cls-1" d="M94.08,102.46h0A1.62,1.62,0,0,1,95.69,104l.66,11.53a1.62,1.62,0,0,1-1.61,1.71H93.42a1.62,1.62,0,0,1-1.61-1.71L92.47,104A1.61,1.61,0,0,1,94.08,102.46ZM91.74,99a2.32,2.32,0,0,1,.18-.92,2.27,2.27,0,0,1,.49-.75,2.2,2.2,0,0,1,.74-.5,2.42,2.42,0,0,1,1.83,0,2.35,2.35,0,0,1,.75.5,2.29,2.29,0,0,1,.5.75,2.17,2.17,0,0,1,.19.92,2.11,2.11,0,0,1-.19.9,2.43,2.43,0,0,1-.5.73,2.38,2.38,0,0,1-.75.51,2.42,2.42,0,0,1-1.83,0,2.23,2.23,0,0,1-.74-.51,2.4,2.4,0,0,1-.49-.73A2.26,2.26,0,0,1,91.74,99Z"/><path class="cls-1" d="M118.57,100.86a9.59,9.59,0,0,0-1-2.42,10.47,10.47,0,0,0-1.58-2,10.69,10.69,0,0,0-2-1.58,10.17,10.17,0,0,0-2.42-1,10.05,10.05,0,0,0-2.7-.36,9.91,9.91,0,0,0-2.68.36,10.17,10.17,0,0,0-2.42,1,10.13,10.13,0,0,0-3.65,3.63,10.18,10.18,0,0,0-1,7.8,9.94,9.94,0,0,0,1,2.42,10.27,10.27,0,0,0,3.65,3.64,9.8,9.8,0,0,0,2.42,1,9.91,9.91,0,0,0,2.68.36,10.05,10.05,0,0,0,2.7-.36,9.8,9.8,0,0,0,2.42-1,10.74,10.74,0,0,0,2-1.59,10.47,10.47,0,0,0,1.58-2,9.91,9.91,0,0,0,1-2.42,10,10,0,0,0,0-5.38Zm-4,5.1a6.56,6.56,0,0,1-1.33,2,6.35,6.35,0,0,1-2,1.34,6.27,6.27,0,0,1-4.86,0,6.32,6.32,0,0,1-3.32-3.32,5.9,5.9,0,0,1-.49-2.41,6.1,6.1,0,0,1,.49-2.43,6.41,6.41,0,0,1,1.34-2,6.5,6.5,0,0,1,2-1.33,6.27,6.27,0,0,1,4.86,0,6.19,6.19,0,0,1,3.31,3.31,6.1,6.1,0,0,1,.49,2.43A5.9,5.9,0,0,1,114.55,106Z"/><path class="cls-1" d="M123.45,108.43h0a1.62,1.62,0,0,1-1.61-1.52l-.65-11.53a1.62,1.62,0,0,1,1.61-1.71h1.32a1.62,1.62,0,0,1,1.61,1.71l-.67,11.53A1.61,1.61,0,0,1,123.45,108.43Zm2.35,3.45a2.23,2.23,0,0,1-.19.92,2.36,2.36,0,0,1-.5.74,2.31,2.31,0,0,1-.73.5,2.35,2.35,0,0,1-.91.19,2.32,2.32,0,0,1-.91-.19,2.52,2.52,0,0,1-.75-.5,2.36,2.36,0,0,1-.5-.74,2.23,2.23,0,0,1-.19-.92,2.18,2.18,0,0,1,.19-.91,2.31,2.31,0,0,1,.5-.73,2.52,2.52,0,0,1,.75-.5,2.15,2.15,0,0,1,.91-.19,2.18,2.18,0,0,1,.91.19,2.41,2.41,0,0,1,1.23,1.23A2.18,2.18,0,0,1,125.8,111.88Z"/><path class="cls-1" d="M104.69,92.4l-.86-.11a.42.42,0,0,1-.15,0,.13.13,0,0,1-.05-.06.12.12,0,0,1,.06-.06l.21,0a6.93,6.93,0,0,0,2.4-1,8.71,8.71,0,0,0,3.35-3.71c.09-.2.18-.4.25-.6a2.24,2.24,0,0,1,1-1.22c.11-.07.21-.15.33-.22a.38.38,0,0,0,.19-.41c0-.23,0-.46-.07-.7a1.63,1.63,0,0,1,0-.38.38.38,0,0,1,.11-.18.23.23,0,0,1,.26,0,.25.25,0,0,1,.14.22c0,.15,0,.3,0,.44s0,.56-.07.83a.84.84,0,0,0,.28.73.8.8,0,0,1,.22.92,2.5,2.5,0,0,0,0,.29,4.1,4.1,0,0,1-.65,1.52,8.35,8.35,0,0,1-1.91,2A9.23,9.23,0,0,1,106.87,92a7.94,7.94,0,0,1-2.17.35Z"/></g></g></svg>