<svg xmlns="http://www.w3.org/2000/svg" viewBox="0 0 190.92 188.21"><defs><style>.cls-1{fill:#00c3ba;}</style></defs><g id="Layer_2" data-name="Layer 2"><g id="Layer_1-2" data-name="Layer 1"><path class="cls-1" d="M13.07,105.46h0a9.05,9.05,0,0,1,9,8.53l3.71,64.66a9,9,0,0,1-9,9.56H9.42a9,9,0,0,1-9-9.55L4,114A9,9,0,0,1,13.07,105.46ZM0,86.23a13.31,13.31,0,0,1,1-5.17,13.06,13.06,0,0,1,2.75-4.21,12.53,12.53,0,0,1,4.14-2.8,13.58,13.58,0,0,1,10.23,0,12.62,12.62,0,0,1,4.21,2.8,13.3,13.3,0,0,1,2.84,4.21,13,13,0,0,1,1,5.17,12.26,12.26,0,0,1-1,5,13.58,13.58,0,0,1-2.84,4.14,13.17,13.17,0,0,1-4.21,2.83,12.8,12.8,0,0,1-5.09,1,12.73,12.73,0,0,1-5.14-1,13.08,13.08,0,0,1-4.14-2.83A13.31,13.31,0,0,1,1,91.25,12.57,12.57,0,0,1,0,86.23Z"/><path class="cls-1" d="M150.42,96.5a55.84,55.84,0,0,0-14.56-25,57.59,57.59,0,0,0-11.49-8.89,58.71,58.71,0,0,0-13.57-5.72,57.34,57.34,0,0,0-15.12-2,56.67,56.67,0,0,0-15,2,58.71,58.71,0,0,0-13.57,5.72,56.5,56.5,0,0,0-11.54,8.89,58.63,58.63,0,0,0-8.93,11.49,56.56,56.56,0,0,0-7.75,28.64,55.05,55.05,0,0,0,2,15.08,56.9,56.9,0,0,0,5.72,13.57,58.63,58.63,0,0,0,8.93,11.49,56.45,56.45,0,0,0,40.14,16.73,57.34,57.34,0,0,0,15.12-2,56.35,56.35,0,0,0,13.57-5.77,57.8,57.8,0,0,0,11.49-8.93,56.6,56.6,0,0,0,8.89-11.49,57.59,57.59,0,0,0,5.67-13.57,57,57,0,0,0,0-30.16Zm-22.55,28.6a35.61,35.61,0,0,1-7.47,11.07,34.93,34.93,0,0,1-11.11,7.51,34.62,34.62,0,0,1-27.23,0A35.43,35.43,0,0,1,63.44,125.1a33.08,33.08,0,0,1-2.74-13.52A34.06,34.06,0,0,1,63.44,98,35.61,35.61,0,0,1,71,86.86a36.37,36.37,0,0,1,11.11-7.47,35.2,35.2,0,0,1,27.23,0A34.82,34.82,0,0,1,127.87,98a34.23,34.23,0,0,1,2.74,13.61A33.25,33.25,0,0,1,127.87,125.1Z"/><path class="cls-1" d="M177.79,139h0a9,9,0,0,1-9-8.54l-3.65-64.66a9,9,0,0,1,9-9.55h7.37a9,9,0,0,1,9,9.56l-3.71,64.66A9.05,9.05,0,0,1,177.79,139Zm13.13,19.3a12.93,12.93,0,0,1-1,5.17,13.07,13.07,0,0,1-6.94,7,12.46,12.46,0,0,1-5,1,12.76,12.76,0,0,1-5.14-1,13.71,13.71,0,0,1-4.17-2.8,13,13,0,0,1-3.87-9.35,12.46,12.46,0,0,1,1-5.05,13,13,0,0,1,2.84-4.14,13.71,13.71,0,0,1,4.17-2.8,12.76,12.76,0,0,1,5.14-1,12.46,12.46,0,0,1,5,1,13.18,13.18,0,0,1,6.94,6.94A12.46,12.46,0,0,1,190.92,158.25Z"/><path class="cls-1" d="M72.6,49c-1.61-.18-3.22-.36-4.82-.57a2.63,2.63,0,0,1-.85-.27c-.12,0-.28-.23-.27-.33a.49.49,0,0,1,.31-.32,11.93,11.93,0,0,1,1.19-.24A38.23,38.23,0,0,0,81.58,42,49,49,0,0,0,100.37,21.2a31.62,31.62,0,0,0,1.44-3.39A12.32,12.32,0,0,1,107.18,11c.62-.37,1.2-.83,1.82-1.21a2.19,2.19,0,0,0,1.11-2.33c-.16-1.3-.32-2.6-.43-3.9a9.46,9.46,0,0,1,0-2.13,2,2,0,0,1,.62-1A1.32,1.32,0,0,1,111.81.1a1.26,1.26,0,0,1,.79,1.23c0,.83,0,1.67,0,2.51-.11,1.55-.26,3.09-.38,4.64a4.6,4.6,0,0,0,1.55,4.07A4.47,4.47,0,0,1,115,17.69a11,11,0,0,0-.26,1.64A22.7,22.7,0,0,1,111,27.84a44.62,44.62,0,0,1-10.7,11.1,52.32,52.32,0,0,1-15.52,8,43.65,43.65,0,0,1-12.21,2Z"/></g></g></svg>