<svg xmlns="http://www.w3.org/2000/svg" viewBox="0 0 190.92 116.53"><defs><style>.cls-1{fill:#00c3ba;}.cls-2{fill:none;stroke:#00c3ba;stroke-miterlimit:10;stroke-width:15.93px;}</style></defs><g id="Layer_2" data-name="Layer 2"><g id="Layer_1-2" data-name="Layer 1"><path class="cls-1" d="M13.07,33.3h0a9.05,9.05,0,0,1,9,8.52l3.71,64.66a9,9,0,0,1-9,9.57H9.42a9,9,0,0,1-9-9.56L4,41.83A9,9,0,0,1,13.07,33.3ZM0,14.07A13.31,13.31,0,0,1,1,8.9,13.11,13.11,0,0,1,3.75,4.68,12.5,12.5,0,0,1,7.89,1.89,13.05,13.05,0,0,1,13,.89a13.12,13.12,0,0,1,5.09,1,12.59,12.59,0,0,1,4.21,2.79A13.35,13.35,0,0,1,25.17,8.9a13,13,0,0,1,1,5.17,12.26,12.26,0,0,1-1,5,13.41,13.41,0,0,1-2.84,4.13,13.19,13.19,0,0,1-4.21,2.84,12.79,12.79,0,0,1-5.09,1,12.72,12.72,0,0,1-5.14-1,13.14,13.14,0,0,1-6.89-7A12.57,12.57,0,0,1,0,14.07Z"/><path class="cls-1 " d="M177.79,83.6h0a9,9,0,0,1-9-8.53L165.11,10.4a9,9,0,0,1,9-9.55h7.37a9,9,0,0,1,9,9.56l-3.71,64.66A9.05,9.05,0,0,1,177.79,83.6Zm13.13,19.31a13.13,13.13,0,0,1-3.83,9.34,13.1,13.1,0,0,1-4.14,2.8,12.46,12.46,0,0,1-5,1,12.76,12.76,0,0,1-5.14-1,13.71,13.71,0,0,1-4.17-2.8,12.8,12.8,0,0,1-2.84-4.17,13,13,0,0,1-1-5.17,12.51,12.51,0,0,1,1-5.06,13.11,13.11,0,0,1,2.84-4.14,13.86,13.86,0,0,1,4.17-2.79,12.76,12.76,0,0,1,5.14-1,12.47,12.47,0,0,1,5,1,13.12,13.12,0,0,1,6.94,6.93A12.51,12.51,0,0,1,190.92,102.91Z"/><path class="cls-1 " d="M72.6,80.71c-1.61-.18-3.22-.36-4.82-.57a2.63,2.63,0,0,1-.85-.27c-.12-.05-.28-.23-.27-.34s.18-.27.31-.31A12,12,0,0,1,68.16,79a38,38,0,0,0,13.42-5.28,49,49,0,0,0,18.79-20.81,32.51,32.51,0,0,0,1.44-3.39,12.32,12.32,0,0,1,5.37-6.82c.62-.37,1.2-.83,1.82-1.21a2.2,2.2,0,0,0,1.11-2.33c-.16-1.3-.32-2.6-.43-3.91a9.49,9.49,0,0,1,0-2.13,1.94,1.94,0,0,1,.62-1,1.32,1.32,0,0,1,1.46-.31A1.25,1.25,0,0,1,112.6,33c0,.84,0,1.68,0,2.51-.11,1.56-.26,3.1-.38,4.65a4.6,4.6,0,0,0,1.55,4.07A4.47,4.47,0,0,1,115,49.37a11,11,0,0,0-.26,1.64,22.66,22.66,0,0,1-3.65,8.5,44.66,44.66,0,0,1-10.7,11.11,52.32,52.32,0,0,1-15.52,8A43.65,43.65,0,0,1,72.61,80.6Z"/><circle class="cls-2" cx="95.46" cy="58.27" r="50.3"/></g></g></svg>