<svg id="Layer_1" data-name="Layer 1" xmlns="http://www.w3.org/2000/svg" width="232.34" height="211.22" viewBox="0 0 232.34 211.22"><defs><style>.cls-1{fill:#fff;}.cls-2{fill:none;stroke:#fff;stroke-miterlimit:10;stroke-width:6.56px;}.cls-3{isolation:isolate;}</style></defs><path class="cls-1" d="M52.12,103.23h0a2.65,2.65,0,0,1,2.65,2.5l1.08,18.93a2.64,2.64,0,0,1-2.48,2.8H51.05a2.64,2.64,0,0,1-2.64-2.64v-.16l1.07-18.93A2.65,2.65,0,0,1,52.12,103.23ZM48.3,97.6a3.77,3.77,0,0,1,.29-1.52,3.61,3.61,0,0,1,.81-1.23A3.41,3.41,0,0,1,50.61,94a4.08,4.08,0,0,1,1.5-.29A4,4,0,0,1,53.6,94a3.83,3.83,0,0,1,1.24.82,4,4,0,0,1,.83,1.23A3.79,3.79,0,0,1,56,97.6a3.68,3.68,0,0,1-.3,1.47,4,4,0,0,1-.83,1.21,4,4,0,0,1-1.24.83,3.88,3.88,0,0,1-3,0,3.58,3.58,0,0,1-1.21-.83,3.78,3.78,0,0,1-.81-1.21A3.54,3.54,0,0,1,48.3,97.6Z"/><path class="cls-1" d="M92.94,105a16.05,16.05,0,0,1-.59,4.41,16.62,16.62,0,0,1-27.76,7.38l0,0A16.77,16.77,0,0,1,62,113.4a16.4,16.4,0,0,1-1.73-12.82,16.16,16.16,0,0,1,1.68-4,16.65,16.65,0,0,1,2.61-3.36,16.11,16.11,0,0,1,3.38-2.6,17.13,17.13,0,0,1,4-1.68,16.45,16.45,0,0,1,4.41-.59,16.93,16.93,0,0,1,4.42.59,17.13,17.13,0,0,1,4,1.68,16,16,0,0,1,3.37,2.6,17.26,17.26,0,0,1,2.6,3.36,16.69,16.69,0,0,1,1.67,4A16.07,16.07,0,0,1,92.94,105Zm-6.39,0a10,10,0,0,0-.81-4A10.28,10.28,0,0,0,72.3,95.6,10.57,10.57,0,0,0,69,97.79,10.13,10.13,0,0,0,66,105a10,10,0,0,0,.8,4,10.3,10.3,0,0,0,5.46,5.44,10.25,10.25,0,0,0,11.25-2.19A10.49,10.49,0,0,0,85.74,109,9.64,9.64,0,0,0,86.55,105Zm-10-18.46L74,83.2,80.72,77h0a5.35,5.35,0,0,1-.91,7.51,5,5,0,0,1-.47.33Z"/><path class="cls-1" d="M96.51,121h0V97H98l2,2.85A10.84,10.84,0,0,1,107.28,97h0a5.41,5.41,0,0,1,5.41,5.41h0v.69h-5.41a4.76,4.76,0,0,0-1.82.36,4.5,4.5,0,0,0-1.48,1,4.4,4.4,0,0,0-1,1.48,4.76,4.76,0,0,0-.36,1.82v7.11A6.14,6.14,0,0,1,96.51,121Z"/><path class="cls-1" d="M138.35,121h-1.48l-2.37-3.3a18.76,18.76,0,0,1-1.86,1.47,13.88,13.88,0,0,1-2,1.19,12.38,12.38,0,0,1-2.21.79,8.9,8.9,0,0,1-2.3.29,13.37,13.37,0,0,1-4.77-.85,11.28,11.28,0,0,1-3.9-2.48,11.77,11.77,0,0,1-2.64-4,14.05,14.05,0,0,1-1-5.36,13.35,13.35,0,0,1,1-5.15,12.44,12.44,0,0,1,2.64-4,11.83,11.83,0,0,1,3.9-2.61,12.36,12.36,0,0,1,4.77-.93,9.49,9.49,0,0,1,2.31.29,10.93,10.93,0,0,1,2.22.81,13.72,13.72,0,0,1,2.06,1.21,17.59,17.59,0,0,1,1.83,1.5L136.87,97h1.48Zm-6.17-12.23a6.36,6.36,0,0,0-.48-2.44,6.84,6.84,0,0,0-1.31-2.08,6.61,6.61,0,0,0-1.94-1.46,5.15,5.15,0,0,0-2.37-.55,6.42,6.42,0,0,0-2.37.43,5.32,5.32,0,0,0-1.92,1.25A5.83,5.83,0,0,0,120.5,106a8.35,8.35,0,0,0,0,5.58,5.6,5.6,0,0,0,1.29,2,5.14,5.14,0,0,0,1.92,1.26,6.63,6.63,0,0,0,2.37.43,5.42,5.42,0,0,0,2.37-.55,6.61,6.61,0,0,0,1.94-1.46,6.89,6.89,0,0,0,1.31-2.09,6.29,6.29,0,0,0,.48-2.42Z"/><path class="cls-1" d="M143,121h0V93.56a6.17,6.17,0,0,1,6.17-6.17h0v27.42A6.17,6.17,0,0,1,143,121Z"/><path class="cls-1" d="M163.42,115.1a3.43,3.43,0,0,0,.71.14,6.33,6.33,0,0,0,2.45-.21,6,6,0,0,0,1.56-.71,5.58,5.58,0,0,0,1.3-1.12,6.09,6.09,0,0,0,.93-1.47l4.49,4.51a11.83,11.83,0,0,1-2,2.18,12.28,12.28,0,0,1-2.4,1.64,13,13,0,0,1-2.71,1,12.55,12.55,0,0,1-2.93.34,12.15,12.15,0,0,1-8.67-3.56,12.44,12.44,0,0,1-2.64-4,13.13,13.13,0,0,1-1-5.1,13.64,13.64,0,0,1,1-5.21,11.92,11.92,0,0,1,2.64-4,11.75,11.75,0,0,1,3.9-2.58,12.35,12.35,0,0,1,4.77-.92,12.83,12.83,0,0,1,5.67,1.36A12.7,12.7,0,0,1,172.9,99a12.54,12.54,0,0,1,2,2.18Zm3.14-12.63a3.11,3.11,0,0,0-.85-.21,6.17,6.17,0,0,0-.86,0,6,6,0,0,0-2.37.46,5.65,5.65,0,0,0-1.93,1.31,6.64,6.64,0,0,0-1.29,2,7.62,7.62,0,0,0-.47,2.71c0,.25,0,.51,0,.76a5.45,5.45,0,0,0,.11.87,8.45,8.45,0,0,0,.19.84,3.41,3.41,0,0,0,.29.71Z"/><path class="cls-1" d="M182,113h0a2.64,2.64,0,0,1-2.64-2.5l-1.11-18.9a2.64,2.64,0,0,1,2.48-2.8h2.32a2.64,2.64,0,0,1,2.64,2.64v.16l-1.09,18.94A2.64,2.64,0,0,1,182,113Zm3.85,5.66a3.59,3.59,0,0,1-.31,1.51,3.75,3.75,0,0,1-.82,1.22,3.7,3.7,0,0,1-1.21.82,3.42,3.42,0,0,1-1.48.31,3.51,3.51,0,0,1-1.5-.31,3.85,3.85,0,0,1-1.22-.82,3.62,3.62,0,0,1-.83-1.22,3.59,3.59,0,0,1-.31-1.51,3.42,3.42,0,0,1,.31-1.48,3.58,3.58,0,0,1,.83-1.21,3.85,3.85,0,0,1,1.22-.82,3.51,3.51,0,0,1,1.5-.31,3.42,3.42,0,0,1,1.48.31,3.83,3.83,0,0,1,2,2,3.53,3.53,0,0,1,.3,1.54Z"/><path class="cls-2" d="M106.91,174.42,12.56,122.84a17.84,17.84,0,0,1-.49-31l94.35-55.53a17.83,17.83,0,0,1,18-.06l95.75,55.53a17.83,17.83,0,0,1-.49,31.13L123.93,174.5A17.82,17.82,0,0,1,106.91,174.42Z"/><g class="cls-3"><g class="cls-3"><path class="cls-1" d="M60,204.46h-.9l-2.92-12.18v12.2h-.81V190.7h1.3l2.9,12.18,2.87-12.18h1.3v13.78h-.87V192.24Z"/></g><g class="cls-3"><path class="cls-1" d="M72.08,197.08v.83H68.32v5.74h4.53v.83H67.42V190.7h5.43v.83H68.32v5.55Z"/></g><g class="cls-3"><path class="cls-1" d="M79.58,198.06l-2.79,6.42H75.9L79,197.33l-2.89-6.63h.94l2.6,5.93,2.62-5.93h.86l-2.89,6.63,3.09,7.15h-1Z"/><path class="cls-1" d="M87.2,190.7v13.78h-.9V190.7Z"/><path class="cls-1" d="M96.22,194.07v1.14h-.87V194c0-1.48-.57-2.6-2.08-2.6s-2.09,1.12-2.09,2.6v7.16c0,1.48.57,2.58,2.09,2.58s2.08-1.1,2.08-2.58v-1.63h.87v1.57c0,2-.87,3.49-3,3.49s-3-1.5-3-3.49v-7c0-2,.87-3.49,3-3.49S96.22,192.08,96.22,194.07Z"/><path class="cls-1" d="M100.57,201.43l-.69,3h-.83l3-13.8h1.32l3.07,13.8h-.91l-.69-3Zm.14-.79h4l-2-8.92Z"/><path class="cls-1" d="M110.22,204.48h-.83V190.7h1.18l4.14,11.63V190.7h.82v13.78h-1l-4.31-12.28Z"/><path class="cls-1" d="M129.14,194.07v1.14h-.87V194c0-1.48-.57-2.6-2.08-2.6s-2.09,1.12-2.09,2.6v7.16c0,1.48.57,2.58,2.09,2.58s2.08-1.1,2.08-2.58v-1.63h.87v1.57c0,2-.87,3.49-3,3.49s-3-1.5-3-3.49v-7c0-2,.87-3.49,3-3.49S129.14,192.08,129.14,194.07Z"/><path class="cls-1" d="M133,201.15c0,1.48.55,2.62,2.07,2.62s2.06-1.14,2.06-2.62V190.7H138v10.41c0,2-.83,3.49-2.93,3.49s-3-1.52-3-3.49V190.7H133Z"/><path class="cls-1" d="M142,190.7v13.78h-.91V190.7Z"/><path class="cls-1" d="M151,194v.29h-.86V194c0-1.46-.55-2.56-2.05-2.56S146,192.49,146,194c0,3.34,5,3.4,5,7.2,0,2-.86,3.45-3,3.45s-3-1.46-3-3.45v-.7h.87v.76c0,1.48.57,2.54,2.08,2.54s2.09-1.06,2.09-2.54c0-3.3-5-3.36-5-7.2,0-2.07.9-3.41,2.93-3.43S151,192,151,194Z"/><path class="cls-1" d="M154.91,190.7v13.78H154V190.7Z"/><path class="cls-1" d="M158.87,204.48H158V190.7h1.19l4.13,11.63V190.7h.83v13.78h-1l-4.31-12.28Z"/><path class="cls-1" d="M172,197.08v.83H168.2v5.74h4.53v.83H167.3V190.7h5.43v.83H168.2v5.55Z"/></g></g><g class="cls-3"><g class="cls-3"><path class="cls-1" d="M76.12,6.33V7.47h-.87V6.27c0-1.48-.57-2.6-2.08-2.6s-2.09,1.12-2.09,2.6v7.16c0,1.48.57,2.58,2.09,2.58s2.08-1.1,2.08-2.58V11.8h.87v1.57c0,2-.87,3.49-3,3.49s-3-1.5-3-3.49v-7c0-2,.86-3.49,3-3.49S76.12,4.34,76.12,6.33Z"/><path class="cls-1" d="M83.82,9.34v.83H80.06v5.74h4.53v.83H79.15V3h5.44v.83H80.06V9.34Z"/><path class="cls-1" d="M87.62,16.74V3h.91v13h4.33v.83Z"/><path class="cls-1" d="M100.44,9.34v.83H96.68v5.74h4.53v.83H95.77V3h5.44v.83H96.68V9.34Z"/><path class="cls-1" d="M107.13,3C109.2,3,110,4,110,5.89v.79c0,1.5-.42,2.42-1.81,2.72,1.49.29,2.06,1.4,2.06,2.95v1.2c0,2-.9,3.19-3,3.19h-3V3ZM106.68,9c1.61,0,2.36-.43,2.36-2.18V6c0-1.43-.45-2.18-1.93-2.18h-2V9Zm.51,6.87c1.52,0,2.11-.84,2.11-2.38V12.29c0-1.79-.81-2.42-2.44-2.42h-1.72v6Z"/><path class="cls-1" d="M116.11,3c2.11,0,3,1.16,3,3.11v1.2c0,1.62-.63,2.54-2,2.86,1.41.31,2,1.32,2,2.81v2.15a3,3,0,0,0,.34,1.65h-1a3.3,3.3,0,0,1-.29-1.65V12.92c0-1.83-1-2.34-2.58-2.34h-1.44v6.16h-.9V3Zm-.51,6.79c1.61,0,2.56-.45,2.56-2.3V6.15c0-1.48-.57-2.36-2.07-2.36h-2v6Z"/></g><g class="cls-3"><path class="cls-1" d="M124.94,13.69l-.69,3h-.83l3-13.8h1.32l3.07,13.8h-.9l-.69-3Zm.13-.79h4l-2-8.91Z"/></g><g class="cls-3"><path class="cls-1" d="M134.47,16.74V3.79h-2.82V3h6.52v.83h-2.79v13Z"/><path class="cls-1" d="M141.81,3V16.74h-.9V3Z"/><path class="cls-1" d="M145.77,16.74h-.83V3h1.18l4.14,11.63V3h.83V16.74h-1L145.77,4.46Z"/><path class="cls-1" d="M160.08,6.33v1h-.86V6.27c0-1.48-.57-2.6-2.09-2.6S155,4.79,155,6.27v7.16c0,1.48.58,2.58,2.09,2.58s2.09-1.1,2.09-2.58v-3h-1.83V9.63h2.69v3.74c0,2-.86,3.49-3,3.49s-3-1.5-3-3.49v-7c0-2,.87-3.49,3-3.49S160.08,4.34,160.08,6.33Z"/></g></g></svg>