<svg xmlns="http://www.w3.org/2000/svg" viewBox="0 0 210.94 210.94"><defs><style>.cls-1{fill:#00c3ba;}</style></defs><g id="Layer_2" data-name="Layer 2"><g id="Layer_1-2" data-name="Layer 1"><path class="cls-1" d="M105.47,0A105.47,105.47,0,1,0,210.94,105.47,105.47,105.47,0,0,0,105.47,0Zm45.72,83a28,28,0,0,0-.65,4c-1.37,7.67-4.73,14.5-9,20.94a110,110,0,0,1-26.34,27.33A128.64,128.64,0,0,1,77,155.09,107.19,107.19,0,0,1,47,159.88l0,.29c-4-.46-7.92-.9-11.87-1.4A7.12,7.12,0,0,1,33,158.1c-.31-.14-.69-.57-.67-.83a1.22,1.22,0,0,1,.77-.78c1-.27,1.94-.42,2.93-.6a93.51,93.51,0,0,0,33-13,120.75,120.75,0,0,0,46.26-51.2,81.89,81.89,0,0,0,3.53-8.37c2.49-7.13,6.67-12.85,13.22-16.77,1.53-.92,3-2,4.48-3a5.4,5.4,0,0,0,2.74-5.73c-.41-3.2-.8-6.4-1.06-9.62a23,23,0,0,1,.12-5.24,5,5,0,0,1,1.52-2.47,3.29,3.29,0,0,1,3.61-.77,3.09,3.09,0,0,1,1.93,3c.07,2.06,0,4.13-.1,6.18-.26,3.82-.64,7.63-.94,11.44a11.39,11.39,0,0,0,3.82,10C152,73.81,152.83,78.14,151.19,83Z"/></g></g></svg>