<svg xmlns="http://www.w3.org/2000/svg" viewBox="0 0 232.34 211.22"><defs><style>.cls-1,.cls-3{fill:#00c3ba;}.cls-2{fill:none;stroke:#00c3ba;stroke-miterlimit:10;stroke-width:6.56px;}.cls-3{font-size:19.69px;font-family:BebasNeue-Regular, Bebas Neue;letter-spacing:0.08em;}.cls-4{letter-spacing:0.08em;}.cls-5{letter-spacing:0.03em;}</style></defs><g id="Layer_2" data-name="Layer 2"><g id="Layer_1-2" data-name="Layer 1"><path class="cls-1" d="M52.12,103.23h0a2.65,2.65,0,0,1,2.65,2.5l1.08,18.93a2.64,2.64,0,0,1-2.64,2.8H51.05a2.64,2.64,0,0,1-2.64-2.8l1.07-18.93A2.65,2.65,0,0,1,52.12,103.23ZM48.3,97.6a3.85,3.85,0,0,1,.29-1.52,3.66,3.66,0,0,1,.81-1.23A3.51,3.51,0,0,1,50.61,94a3.89,3.89,0,0,1,1.5-.29A4,4,0,0,1,53.6,94a3.73,3.73,0,0,1,1.24.82,4,4,0,0,1,.83,1.23A3.85,3.85,0,0,1,56,97.6a3.65,3.65,0,0,1-.3,1.47,4.2,4.2,0,0,1-.83,1.21,3.91,3.91,0,0,1-1.24.83,3.78,3.78,0,0,1-1.49.3,3.72,3.72,0,0,1-1.5-.3,3.68,3.68,0,0,1-1.21-.83,3.78,3.78,0,0,1-.81-1.21A3.64,3.64,0,0,1,48.3,97.6Z"/><path class="cls-1" d="M92.94,105a16.08,16.08,0,0,1-.59,4.41,16.69,16.69,0,0,1-4.27,7.35,16.61,16.61,0,0,1-23.52,0A16.41,16.41,0,0,1,62,113.4,16.57,16.57,0,0,1,59.67,105a16.31,16.31,0,0,1,.6-4.42,16.07,16.07,0,0,1,1.68-4,16.85,16.85,0,0,1,2.61-3.36,16.29,16.29,0,0,1,3.38-2.6,17,17,0,0,1,4-1.68,16.47,16.47,0,0,1,4.41-.59,16.65,16.65,0,0,1,4.42.59,16.87,16.87,0,0,1,4,1.68,16.23,16.23,0,0,1,3.37,2.6,17.17,17.17,0,0,1,2.6,3.36,16.84,16.84,0,0,1,1.67,4A16.31,16.31,0,0,1,92.94,105Zm-6.39,0a9.94,9.94,0,0,0-.81-4A10.25,10.25,0,0,0,80.3,95.6a10.21,10.21,0,0,0-8,0,10.5,10.5,0,0,0-3.26,2.19,10.13,10.13,0,0,0-3,7.23,9.9,9.9,0,0,0,.8,4,10.28,10.28,0,0,0,5.46,5.44,10.21,10.21,0,0,0,8,0,10.18,10.18,0,0,0,3.25-2.19A10.57,10.57,0,0,0,85.74,109,9.74,9.74,0,0,0,86.55,105Zm-10-18.46-2.54-3.34L80.72,77h0a5.35,5.35,0,0,1-1.38,7.84Z"/><path class="cls-1" d="M96.51,121h0V97H98l2,2.85A10.83,10.83,0,0,1,107.28,97h0a5.41,5.41,0,0,1,5.41,5.41v.69h-5.41a4.65,4.65,0,0,0-1.82.36,4.58,4.58,0,0,0-1.48,1,4.4,4.4,0,0,0-1,1.48,4.65,4.65,0,0,0-.36,1.82v7.11A6.14,6.14,0,0,1,96.51,121Z"/><path class="cls-1" d="M138.35,121h-1.48l-2.37-3.3a20.72,20.72,0,0,1-1.86,1.47,14.4,14.4,0,0,1-2,1.19,12.66,12.66,0,0,1-2.21.79,8.9,8.9,0,0,1-2.3.29,13.23,13.23,0,0,1-4.77-.85,11.29,11.29,0,0,1-3.9-2.48,11.74,11.74,0,0,1-2.64-4,14.11,14.11,0,0,1-1-5.36,13.46,13.46,0,0,1,1-5.15,12.47,12.47,0,0,1,2.64-4,11.93,11.93,0,0,1,3.9-2.61,12.29,12.29,0,0,1,4.77-.93,9.49,9.49,0,0,1,2.31.29,10.93,10.93,0,0,1,2.22.81,13.72,13.72,0,0,1,2.06,1.21,16.6,16.6,0,0,1,1.83,1.5L136.87,97h1.48Zm-6.17-12.23a6.43,6.43,0,0,0-.48-2.44,7,7,0,0,0-1.31-2.08,6.48,6.48,0,0,0-1.94-1.46,5.22,5.22,0,0,0-2.37-.55,6.47,6.47,0,0,0-2.37.43,5.28,5.28,0,0,0-1.92,1.25A5.83,5.83,0,0,0,120.5,106a8.35,8.35,0,0,0,0,5.58,5.7,5.7,0,0,0,1.29,2,5.18,5.18,0,0,0,1.92,1.26,6.69,6.69,0,0,0,2.37.43,5.36,5.36,0,0,0,2.37-.55,6.48,6.48,0,0,0,1.94-1.46,7,7,0,0,0,1.31-2.09A6.34,6.34,0,0,0,132.18,108.75Z"/><path class="cls-1" d="M143,121h0V93.56a6.17,6.17,0,0,1,6.17-6.17h0v27.42A6.17,6.17,0,0,1,143,121Z"/><path class="cls-1" d="M163.42,115.1a3.43,3.43,0,0,0,.71.14,6.22,6.22,0,0,0,2.45-.21,6.1,6.1,0,0,0,1.56-.71,5.76,5.76,0,0,0,1.3-1.12,5.9,5.9,0,0,0,.93-1.47l4.49,4.51a12,12,0,0,1-2,2.18,12.58,12.58,0,0,1-2.4,1.64,12.81,12.81,0,0,1-2.71,1,12.43,12.43,0,0,1-2.93.34,12.12,12.12,0,0,1-8.67-3.56,12.49,12.49,0,0,1-2.64-4,13.24,13.24,0,0,1-1-5.1,13.69,13.69,0,0,1,1-5.21,12.07,12.07,0,0,1,2.64-4,11.75,11.75,0,0,1,3.9-2.58,12.28,12.28,0,0,1,4.77-.92,12.08,12.08,0,0,1,2.94.36,12.29,12.29,0,0,1,2.73,1,12.56,12.56,0,0,1,2.41,1.65,12.34,12.34,0,0,1,2,2.18Zm3.14-12.63a3.41,3.41,0,0,0-.85-.21,7.88,7.88,0,0,0-.86,0,6.07,6.07,0,0,0-2.37.46,5.7,5.7,0,0,0-1.93,1.31,6.5,6.5,0,0,0-1.29,2.05,7.48,7.48,0,0,0-.47,2.71,7.18,7.18,0,0,0,0,.76c0,.28.06.57.11.87a7.35,7.35,0,0,0,.19.84,3.29,3.29,0,0,0,.29.71Z"/><path class="cls-1" d="M182,113h0a2.64,2.64,0,0,1-2.64-2.5L178.25,91.6a2.64,2.64,0,0,1,2.64-2.8h2.16a2.64,2.64,0,0,1,2.64,2.8l-1.09,18.94A2.64,2.64,0,0,1,182,113Zm3.85,5.66a3.64,3.64,0,0,1-.31,1.51,3.69,3.69,0,0,1-.82,1.22,3.65,3.65,0,0,1-1.21.82,3.51,3.51,0,0,1-1.48.31,3.57,3.57,0,0,1-1.5-.31,3.91,3.91,0,0,1-1.22-.82,3.72,3.72,0,0,1-.83-1.22,3.64,3.64,0,0,1-.31-1.51,3.51,3.51,0,0,1,.31-1.48,3.68,3.68,0,0,1,.83-1.21,3.91,3.91,0,0,1,1.22-.82,3.57,3.57,0,0,1,1.5-.31,3.51,3.51,0,0,1,1.48.31,3.87,3.87,0,0,1,2,2A3.51,3.51,0,0,1,185.81,118.69Z"/><path class="cls-2" d="M106.91,174.42,12.56,122.84a17.84,17.84,0,0,1-.49-31l94.35-55.53a17.83,17.83,0,0,1,18-.06l95.75,55.53a17.83,17.83,0,0,1-.49,31.13l-95.75,51.59A17.84,17.84,0,0,1,106.91,174.42Z"/><text class="cls-3" transform="translate(49.93 204.48)"><tspan xml:space="preserve"> M</tspan><tspan class="cls-4" x="16.7" y="0">E</tspan><tspan x="25.36" y="0">XICAN CUISINE</tspan></text><text class="cls-3" transform="translate(64.84 16.74)"><tspan xml:space="preserve"> CELEBR</tspan><tspan class="cls-5" x="57.99" y="0">A</tspan><tspan x="66.46" y="0">TING</tspan></text></g></g></svg>