<svg xmlns="http://www.w3.org/2000/svg" viewBox="0 0 224.17 224.17"><defs><style>.cls-1{fill:#00c3ba;}.cls-2{fill:#30c3ba;}.cls-3{fill:none;stroke:#00c3ba;stroke-miterlimit:10;stroke-width:6.83px;}</style></defs><g id="Layer_2" data-name="Layer 2"><g id="Layer_1-2" data-name="Layer 1"><path class="cls-1" d="M100.73,147.36h0a1.25,1.25,0,0,1,1.24,1.18l.51,8.91a1.25,1.25,0,0,1-1.24,1.32h-1A1.25,1.25,0,0,1,99,157.45l.5-8.91A1.25,1.25,0,0,1,100.73,147.36Zm-1.81-2.65a1.87,1.87,0,0,1,.14-.71,1.77,1.77,0,0,1,.38-.58A1.61,1.61,0,0,1,100,143a1.87,1.87,0,0,1,.71-.13,1.82,1.82,0,0,1,.7.13,1.82,1.82,0,0,1,1,1,1.71,1.71,0,0,1,.15.71,1.58,1.58,0,0,1-.15.69,1.61,1.61,0,0,1-.39.57,1.76,1.76,0,0,1-1.28.54,1.87,1.87,0,0,1-.71-.14,1.78,1.78,0,0,1-.57-.4,1.8,1.8,0,0,1-.52-1.26Z"/><path class="cls-1" d="M119.66,146.13a7.54,7.54,0,0,0-.78-1.87,7.87,7.87,0,0,0-1.23-1.59,8,8,0,0,0-1.58-1.22,8.14,8.14,0,0,0-1.87-.79,7.87,7.87,0,0,0-4.16,0,8.14,8.14,0,0,0-1.87.79,7.82,7.82,0,0,0-1.59,1.22,8.66,8.66,0,0,0-1.23,1.59,7.84,7.84,0,0,0-.79,6,7.9,7.9,0,0,0,.79,1.87,8.59,8.59,0,0,0,1.23,1.58,7.87,7.87,0,0,0,1.59,1.23,7.76,7.76,0,0,0,1.87.8,7.87,7.87,0,0,0,4.16,0,7.76,7.76,0,0,0,1.87-.8,8.09,8.09,0,0,0,1.58-1.23,7.59,7.59,0,0,0,2-3.45,7.87,7.87,0,0,0,0-4.16Zm-3.11,3.94a4.85,4.85,0,0,1-1,1.53,4.8,4.8,0,0,1-1.53,1,4.7,4.7,0,0,1-3.75,0,4.8,4.8,0,0,1-1.53-1,4.88,4.88,0,0,1-1-1.53,4.65,4.65,0,0,1-.38-1.86,4.84,4.84,0,0,1,2.95-4.44,4.82,4.82,0,0,1,3.75,0,4.8,4.8,0,0,1,1.53,1,4.74,4.74,0,0,1,1,1.53,4.61,4.61,0,0,1,.38,1.88A4.49,4.49,0,0,1,116.55,150.07Z"/><path class="cls-1" d="M123.43,152h0a1.25,1.25,0,0,1-1.24-1.18l-.5-8.91a1.25,1.25,0,0,1,1.24-1.32h1a1.25,1.25,0,0,1,1.24,1.32l-.51,8.91A1.25,1.25,0,0,1,123.43,152Zm1.82,2.66a1.71,1.71,0,0,1-.15.71,1.67,1.67,0,0,1-.38.58,1.92,1.92,0,0,1-.57.39,1.82,1.82,0,0,1-.7.14,1.87,1.87,0,0,1-.71-.14,1.92,1.92,0,0,1-.57-.39,1.56,1.56,0,0,1-.39-.58,1.71,1.71,0,0,1-.15-.71,1.66,1.66,0,0,1,.15-.7,1.81,1.81,0,0,1,.39-.57,1.73,1.73,0,0,1,.57-.38,1.7,1.7,0,0,1,.71-.14,1.65,1.65,0,0,1,.7.14,1.73,1.73,0,0,1,.57.38,2,2,0,0,1,.38.57A1.66,1.66,0,0,1,125.25,154.64Z"/><path class="cls-1" d="M108.93,139.58l-.66-.07-.12,0a0,0,0,1,1,0-.09l.16,0a5,5,0,0,0,1.85-.73,6.69,6.69,0,0,0,2.59-2.86,4.73,4.73,0,0,0,.2-.47,1.69,1.69,0,0,1,.74-.94c.09-.05.17-.12.25-.17a.3.3,0,0,0,.15-.32c0-.18,0-.36,0-.54a1.4,1.4,0,0,1,0-.29.31.31,0,0,1,.09-.14.18.18,0,0,1,.2,0,.18.18,0,0,1,.11.17c0,.11,0,.23,0,.34s0,.43,0,.64a.63.63,0,0,0,.21.56.62.62,0,0,1,.17.71,1.6,1.6,0,0,0,0,.23,3.14,3.14,0,0,1-.51,1.17,6.11,6.11,0,0,1-1.47,1.53,7.27,7.27,0,0,1-2.14,1.11,6.35,6.35,0,0,1-1.69.27Z"/><path class="cls-1" d="M37.29,100.2h0a3.21,3.21,0,0,1,3.21,3l1.32,23a3.22,3.22,0,0,1-3.21,3.4H36a3.22,3.22,0,0,1-3.21-3.4l1.3-23A3.2,3.2,0,0,1,37.29,100.2Zm-4.64-6.83A4.72,4.72,0,0,1,33,91.53,4.44,4.44,0,0,1,34,90a4.37,4.37,0,0,1,1.46-1,4.81,4.81,0,0,1,1.83-.35,4.86,4.86,0,0,1,1.81.35,4.49,4.49,0,0,1,1.49,1,4.68,4.68,0,0,1,1,1.49A4.72,4.72,0,0,1,42,93.37a4.43,4.43,0,0,1-.37,1.78,4.94,4.94,0,0,1-1,1.47,4.71,4.71,0,0,1-5.13,1,4.55,4.55,0,0,1-1.46-1,4.67,4.67,0,0,1-1-1.47A4.42,4.42,0,0,1,32.65,93.37Z"/><path class="cls-1" d="M86.79,102.37a19.74,19.74,0,0,1-.72,5.35,20.51,20.51,0,0,1-2,4.81,19.86,19.86,0,0,1-3.16,4.1,20.5,20.5,0,0,1-4.08,3.17,20.16,20.16,0,0,1-15.52,2,20.12,20.12,0,0,1-4.81-2,20.29,20.29,0,0,1-7.26-7.27,20.12,20.12,0,0,1-2-4.81,20,20,0,0,1,0-10.71,20,20,0,0,1,2-4.81,20.45,20.45,0,0,1,3.16-4.08A20.21,20.21,0,0,1,56.47,85a20.48,20.48,0,0,1,4.81-2,20.27,20.27,0,0,1,10.71,0,19.91,19.91,0,0,1,8.89,5.18A19.74,19.74,0,0,1,84,92.2a20.33,20.33,0,0,1,2,4.81A19.92,19.92,0,0,1,86.79,102.37Zm-7.76,0a12,12,0,0,0-1-4.83A12.36,12.36,0,0,0,71.46,91a12.42,12.42,0,0,0-9.67,0,12.81,12.81,0,0,0-3.95,2.65,12.51,12.51,0,0,0-2.66,3.94,12,12,0,0,0-1,4.83,11.71,11.71,0,0,0,1,4.8,12.46,12.46,0,0,0,6.61,6.6,12.42,12.42,0,0,0,9.67,0,12.4,12.4,0,0,0,3.94-2.66,12.71,12.71,0,0,0,2.65-3.94A11.71,11.71,0,0,0,79,102.37ZM67,80l-3.08-4.06L72,68.4h0a6.49,6.49,0,0,1-1.67,9.51Z"/><path class="cls-1" d="M91.11,121.71h0V92.58h1.8L95.36,96a12.8,12.8,0,0,1,4.08-2.52,13,13,0,0,1,4.73-.89h0a6.56,6.56,0,0,1,6.55,6.56V100h-6.55a5.68,5.68,0,0,0-4,1.64,5.42,5.42,0,0,0-1.2,1.79,5.64,5.64,0,0,0-.43,2.2v8.63A7.43,7.43,0,0,1,91.11,121.71Z"/><path class="cls-1" d="M141.84,121.71h-1.79l-2.88-4a26.27,26.27,0,0,1-2.25,1.78,17.13,17.13,0,0,1-2.49,1.44,15.34,15.34,0,0,1-2.68,1,11.35,11.35,0,0,1-2.79.35,16.28,16.28,0,0,1-5.78-1,13.85,13.85,0,0,1-4.73-3,14.21,14.21,0,0,1-3.2-4.83,17.2,17.2,0,0,1-1.17-6.5,16.39,16.39,0,0,1,1.17-6.24,14.87,14.87,0,0,1,3.2-4.89,14.57,14.57,0,0,1,4.73-3.17A14.92,14.92,0,0,1,127,91.47a11.15,11.15,0,0,1,2.81.35,14,14,0,0,1,2.69,1A17.32,17.32,0,0,1,135,94.27a20.68,20.68,0,0,1,2.22,1.82l2.88-3.46h1.79Zm-7.48-14.82a7.68,7.68,0,0,0-.58-3,8.47,8.47,0,0,0-1.59-2.53,7.75,7.75,0,0,0-2.36-1.77A6.28,6.28,0,0,0,127,99a8.07,8.07,0,0,0-2.87.52,6.49,6.49,0,0,0-2.33,1.52,7,7,0,0,0-1.57,2.49,10.37,10.37,0,0,0,0,6.78,7.06,7.06,0,0,0,1.57,2.48,6.52,6.52,0,0,0,2.33,1.53,8.07,8.07,0,0,0,2.87.52,6.41,6.41,0,0,0,2.87-.67,8.08,8.08,0,0,0,2.36-1.77,8.47,8.47,0,0,0,1.59-2.53A7.68,7.68,0,0,0,134.36,106.89Z"/><path class="cls-1" d="M147.5,121.71h0V88.47A7.48,7.48,0,0,1,155,81h0v33.24A7.47,7.47,0,0,1,147.5,121.71Z"/><path class="cls-1" d="M172.23,114.59a3.83,3.83,0,0,0,.87.17,8.46,8.46,0,0,0,.87,0,7.3,7.3,0,0,0,2.1-.3,7.69,7.69,0,0,0,1.89-.86,7.21,7.21,0,0,0,2.7-3.14L186.1,116a14.58,14.58,0,0,1-2.38,2.64,14.42,14.42,0,0,1-2.91,2,14.66,14.66,0,0,1-3.29,1.24,14.93,14.93,0,0,1-3.55.42,14.64,14.64,0,0,1-10.51-4.33,15,15,0,0,1-3.2-4.85,16,16,0,0,1-1.17-6.19,16.49,16.49,0,0,1,1.17-6.31,14.3,14.3,0,0,1,7.93-8A15.1,15.1,0,0,1,174,91.47a14.58,14.58,0,0,1,3.56.43,14.81,14.81,0,0,1,6.23,3.25,14.72,14.72,0,0,1,2.4,2.65ZM176,99.27a4.42,4.42,0,0,0-1-.24A9,9,0,0,0,174,99a7.49,7.49,0,0,0-2.87.56,6.75,6.75,0,0,0-2.34,1.59,7.53,7.53,0,0,0-1.56,2.49,8.92,8.92,0,0,0-.57,3.28c0,.27,0,.58,0,.92a9.41,9.41,0,0,0,.13,1c.07.35.14.69.23,1a3.86,3.86,0,0,0,.36.87Z"/><path class="cls-1" d="M194.71,112.08h0a3.2,3.2,0,0,1-3.2-3l-1.3-23a3.21,3.21,0,0,1,3.21-3.39H196a3.21,3.21,0,0,1,3.21,3.39l-1.32,23A3.2,3.2,0,0,1,194.71,112.08Zm4.67,6.86a4.71,4.71,0,0,1-1.36,3.32,4.64,4.64,0,0,1-1.47,1,4.36,4.36,0,0,1-1.8.37,4.42,4.42,0,0,1-1.82-.37,4.69,4.69,0,0,1-1.48-1,4.63,4.63,0,0,1-1-1.48,4.75,4.75,0,0,1-.36-1.84,4.46,4.46,0,0,1,1.37-3.26,4.89,4.89,0,0,1,1.48-1,4.58,4.58,0,0,1,1.82-.36,4.52,4.52,0,0,1,1.8.36,4.85,4.85,0,0,1,1.47,1,4.49,4.49,0,0,1,1,1.46A4.39,4.39,0,0,1,199.38,118.94Z"/><path class="cls-2" d="M83.49,147.41h8.29a.64.64,0,0,1,.64.64v1.1a.65.65,0,0,1-.64.65H83.49a.64.64,0,0,1-.64-.65v-1.1A.64.64,0,0,1,83.49,147.41Z"/><path class="cls-2" d="M132.92,147.41h8.28a.64.64,0,0,1,.64.64v1.1a.64.64,0,0,1-.64.65h-8.28a.65.65,0,0,1-.65-.65v-1.1A.65.65,0,0,1,132.92,147.41Z"/><circle class="cls-3" cx="112.08" cy="112.08" r="108.67"/></g></g></svg>