<svg xmlns="http://www.w3.org/2000/svg" viewBox="0 0 96.04 96.04"><defs><style>.cls-1{fill:#ffddf0;}.cls-2{fill:#ea4c93;}</style></defs><g id="Layer_2" data-name="Layer 2"><g id="Layer_1-2" data-name="Layer 1"><circle class="cls-1" cx="48.02" cy="48.02" r="48.02"/><path class="cls-2" d="M75.18,42.73A71.24,71.24,0,0,1,41.7,73.19c-6.12,2.76-13.23,3.91-20,4.48-4.66.39-8.35-2.89-9.52-7.89s.2-9.27,4.86-11.89A70.87,70.87,0,0,1,27.6,52.75c12-4.34,21-11.93,26.27-23.65C57.25,21.62,62.63,17.55,70,18.65c1.75-1.93,2.76-3.73,4.27-4.42.83-.39,2.51,1.1,4.12,1.9l-3.78,4.33C81.93,27.92,79.34,35.35,75.18,42.73ZM18.75,66.88c7.92-4,15.74-8.27,23.7-12.24,8.3-4.15,13.08-11.37,17.22-19.18,1.83-3.46,3.5-7,5.55-11.15-5.76-.59-6.61,3.06-8,5.63-3.7,7-7.35,14-14.38,18.26-5.18,3.11-10.72,5.61-16.11,8.35-2.55,1.29-5.42,2.14-7.6,3.87-1.77,1.41-2.72,3.84-4.83,7C17.11,67.1,18.06,67.23,18.75,66.88Z"/></g></g></svg>