<svg xmlns="http://www.w3.org/2000/svg" viewBox="0 0 91.22 91.22"><defs><style>.cls-1{fill:#f9c7c7;}.cls-2{fill:#ef3c38;}.cls-3{fill:#efa3a3;}.cls-4{fill:#d12f2f;}</style></defs><g id="Layer_2" data-name="Layer 2"><g id="Layer_1-2" data-name="Layer 1"><rect class="cls-1" width="91.22" height="91.22" rx="13.85"/><path class="cls-2" d="M31.69,82.67a2,2,0,0,1-.86-.3C31.11,82.48,31.4,82.58,31.69,82.67Z"/><path class="cls-2" d="M45.61,5.26A40.35,40.35,0,0,0,32.08,83.62c.28.11.57.21.86.3h0A40.35,40.35,0,1,0,45.61,5.26Zm0,75.45a35.09,35.09,0,0,1-9-1.18C39.5,73.27,41.41,64,41.41,64s2.2,4.39,10,4.39c15.72,0,20-16.66,20-24.2S66.86,20.1,46.9,20.1,19.79,34.71,19.79,44.77s8.64,15.67,8.87,15.41c2.22-2.52,1.72-6.35,1.72-6.35s-3.14-3.08-3.14-9.69c0-12.86,12.4-16.89,19.18-16.89s16,5,16,17.55-8.1,17-12.5,17a5.88,5.88,0,0,1-6.28-5.65c0-2.36,3.53-12.69,3.53-14.86s-1.17-5.8-5-5.8-7.4,5-7.4,9A19.22,19.22,0,0,0,36,51.3S31.05,70,30.88,71.11a43.13,43.13,0,0,0-.59,6.09,35.12,35.12,0,1,1,15.32,3.51Z"/><path class="cls-3" d="M77.37,0H45.61V91.22H77.37A13.85,13.85,0,0,0,91.22,77.37V13.85A13.85,13.85,0,0,0,77.37,0Z"/><path class="cls-4" d="M45.61,37V47.83a40.21,40.21,0,0,0,1.53-6.52A6.72,6.72,0,0,0,45.61,37Z"/><path class="cls-4" d="M71.43,44.23c0-7.55-4.57-24.13-24.53-24.13-.44,0-.86,0-1.29,0v7.14l.81,0c6.77,0,16,5,16,17.55s-8.1,17-12.5,17a6.37,6.37,0,0,1-4.28-1.46v7a15.2,15.2,0,0,0,5.78,1C67.11,68.43,71.43,51.77,71.43,44.23Z"/><path class="cls-4" d="M45.61,5.26V10.5a35.11,35.11,0,0,1,0,70.21V86a40.35,40.35,0,1,0,0-80.69Z"/></g></g></svg>