<svg xmlns="http://www.w3.org/2000/svg" width="100" height="100" viewBox="0 0 100 100">
  <defs>
    <style>
      .cls-1 {
        fill: #cea32c;
        stroke: #020202;
        stroke-miterlimit: 10;
        stroke-width: 0.77px;
      }
    </style>
  </defs>
  <g id="chili">
    <g>
      <ellipse class="cls-1" cx="50.08" cy="58.47" rx="46.2" ry="19.54" transform="matrix(0.98, -0.21, 0.21, 0.98, -11.07, 11.7)"/>
      <path class="cls-1" d="M61.36,37.4a53.28,53.28,0,0,1,4.36,13.05c.13.75.23,1.49.3,2.23-4.53,2.81-11.19,6.22-17,7.09a24.69,24.69,0,0,1-14.8-2.31c-.11-.51-.23-1-.33-1.55a54.51,54.51,0,0,1-.21-14.1c1.07-10.26,4.58-20.55,10.45-21.56S56.93,28,61.36,37.4Z"/>
    </g>
  </g>
</svg>
