<svg xmlns="http://www.w3.org/2000/svg" width="100" height="100" viewBox="0 0 100 100">
  <defs>
    <style>
      .cls-1 {
        fill: #2c890a;
      }

      .cls-1, .cls-2 {
        stroke: #020202;
        stroke-miterlimit: 10;
        stroke-width: 2px;
      }

      .cls-2 {
        fill: #d67913;
      }
    </style>
  </defs>
  <g id="chili">
    <g>
      <polygon class="cls-1" points="64.11 35.62 89.18 29.5 81.72 16.76 64.11 35.62"/>
      <polygon class="cls-1" points="66.11 35.2 76.89 11.75 62.27 9.68 66.11 35.2"/>
      <path class="cls-2" d="M74.88,46.66c1.38-9.76-5-18.74-14.37-20-8.78-1.25-17,4.77-19,13.65A15.37,15.37,0,0,0,29.3,53.37a15.89,15.89,0,0,0,.12,5.16,12,12,0,0,0-10.69,10.4,12.31,12.31,0,0,0,0,3.74,8.62,8.62,0,0,0-7.2,7.43,8.5,8.5,0,0,0,7,9.76A8.49,8.49,0,0,0,28,82.42v0c.15,0,.29.07.45.09A12,12,0,0,0,41.63,70.7l.09,0A14.81,14.81,0,0,0,57.1,62.09C65.79,62.47,73.58,55.87,74.88,46.66Z"/>
    </g>
  </g>
</svg>
