<svg xmlns="http://www.w3.org/2000/svg" viewBox="0 0 96.04 96.04"><defs><style>.cls-1{fill:#abd8bd;}.cls-2{fill:#09ad4f;}</style></defs><g id="Layer_2" data-name="Layer 2"><g id="Layer_1-2" data-name="Layer 1"><circle class="cls-1" cx="48.02" cy="48.02" r="48.02"/><path class="cls-2" d="M84.08,26.65C75.85,29,67.93,32.06,60.79,36.88,54.19,41.33,48.89,46.94,46,54.45A73.91,73.91,0,0,0,43.8,62c-.14.48-.23,1-.33,1.46h-.23c-.22-.72-.45-1.44-.69-2.15-2.41-7.13-7.31-12.15-13.6-16a63.44,63.44,0,0,0-16.32-6.73,8.88,8.88,0,0,0-1.21-.15c.26,2.5.48,4.82.76,7.13a54.67,54.67,0,0,0,4,15.33C20.44,70.49,27.78,76.21,38,78.35c1,.22,2.09.39,3.15.54.64.09,1.06.39,1,.88h.16c0-.16-.08-.32-.13-.47A70.94,70.94,0,0,0,26.38,53.47c-1.69-1.8-3.51-3.47-5.28-5.2a61,61,0,0,1,13.11,12.5A77.2,77.2,0,0,1,43.7,76.72,96,96,0,0,1,56.48,55.33a87.21,87.21,0,0,1,17.78-17C61.51,50.36,51.21,64,45.57,80.85l0,0a1.55,1.55,0,0,1,1.42-1,48.67,48.67,0,0,0,13.45-3.64A37.56,37.56,0,0,0,79.14,57.89c3.74-7.58,5.5-15.71,6.44-24,.27-2.5.49-5,.76-7.78C85.43,26.3,84.75,26.46,84.08,26.65Z"/></g></g></svg>