<svg xmlns="http://www.w3.org/2000/svg" width="100" height="100" viewBox="0 0 100 100">
  <defs>
    <style>
      .cls-1 {
        fill: #e8eced;
      }

      .cls-1, .cls-2, .cls-3, .cls-4 {
        stroke: #020202;
        stroke-miterlimit: 10;
        stroke-width: 2px;
      }

      .cls-2 {
        fill: #5ecfea;
      }

      .cls-3 {
        fill: #d32316;
      }

      .cls-4 {
        fill: #2a770a;
      }
    </style>
  </defs>
  <g id="chili">
    <g>
      <g>
        <path class="cls-1" d="M73.76,96.5H61.54A12.53,12.53,0,0,1,49,84V42.88c0-6.43,7.13-26.06,13.56-26.06H72.73c6.93,0,13.57,20,13.57,27V84A12.54,12.54,0,0,1,73.76,96.5Z"/>
        <rect class="cls-2" x="57.48" y="7.5" width="20.11" height="10.17" rx="2.51"/>
      </g>
      <g>
        <ellipse class="cls-3" cx="33.5" cy="73.5" rx="25.5" ry="23"/>
        <g>
          <path class="cls-4" d="M35.58,49.39a24.6,24.6,0,0,0-10.71,1.92l-.79,7,8.63-3.78,6.9,7.31,2.6-8.68L50,60.81l1.26-4.89A24.79,24.79,0,0,0,35.58,49.39Z"/>
          <path class="cls-4" d="M38.39,52.33l1.91-9.74A1.34,1.34,0,0,0,39,41H35.17a1.34,1.34,0,0,0-1.31,1.59l1.91,9.74A1.33,1.33,0,0,0,38.39,52.33Z"/>
        </g>
      </g>
    </g>
  </g>
</svg>
