<svg xmlns="http://www.w3.org/2000/svg" viewBox="0 0 96.04 96.04"><defs><style>.cls-1{fill:#e4edd1;}.cls-2{fill:#88c341;}</style></defs><g id="Layer_2" data-name="Layer 2"><g id="Layer_1-2" data-name="Layer 1"><circle class="cls-1" cx="48.02" cy="48.02" r="48.02"/><path class="cls-2" d="M63,21.49c4.9-.88,9.42-.32,13.49,2.51a16.59,16.59,0,0,1,6,19.82,17,17,0,0,1-8.13,8.82l1,1.07C79.65,58.5,80.88,64,78.56,70a14.44,14.44,0,0,1-13.08,9.72c-6.48.5-11.45-2.3-14.74-7.94-.91-1.56-.86-1.57-2.64-1-3.33,1.07-6.67,2.09-10,3.19A7.25,7.25,0,0,0,36,75.11C33,77.43,30,79.79,27,82.18c-.67.54-1,.51-1.62-.12q-5.31-5.73-10.72-11.37c-.71-.74-.67-1.2,0-2,2.56-2.85,5-5.76,7.54-8.67a5.23,5.23,0,0,0,1-1.58c1.35-3.5,2.69-7,3.95-10.53a7,7,0,0,0,.13-2.16c0-1.9,0-3.79.09-5.68a5.59,5.59,0,0,1,.21-1,30.59,30.59,0,0,1-3.68-.22,9.95,9.95,0,1,1,8.51-17c.86.82,1.31.78,2.22.07A13.68,13.68,0,0,1,46,19.29c.82.16,1.18,0,1.46-.83a7.83,7.83,0,0,1,8.6-5.5c3.87.53,6.55,3.58,6.81,7.75C62.87,20.91,62.92,21.1,63,21.49ZM28,60.25l.34.17,5.8-7.06L31.39,52Zm8.4,8.5.15.27,7.69-2.75,0-.44c-1-.19-2.27-.85-3-.48A35.56,35.56,0,0,0,36.35,68.75Z"/></g></g></svg>