<svg xmlns="http://www.w3.org/2000/svg" width="60" height="70" viewBox="0 0 60 70">
  <defs>
    <style>
      .cls-1 {
        fill: #00c3ba;
      }
    </style>
  </defs>
  <g id="chili">
    <g>
      <g>
        <path class="cls-1" d="M30.13,12.6A26.53,26.53,0,1,1,3.6,39.13,26.56,26.56,0,0,1,30.13,12.6m0-2.85A29.38,29.38,0,1,0,59.5,39.13,29.38,29.38,0,0,0,30.13,9.75Z"/>
        <path class="cls-1" d="M27.46,1.23h5.33A2.07,2.07,0,0,1,34.86,3.3v7.59a.76.76,0,0,1-.76.76h-8a.74.74,0,0,1-.74-.74V3.3A2.07,2.07,0,0,1,27.46,1.23Z"/>
        <path class="cls-1" d="M45.87,9h5.74a1.87,1.87,0,0,1,1.87,1.87v5.69a.68.68,0,0,1-.68.68H44.67a.67.67,0,0,1-.67-.67v-5.7A1.87,1.87,0,0,1,45.87,9Z" transform="translate(15.8 -25.13) rotate(34.21)"/>
      </g>
      <path class="cls-1" d="M31.06,17.36V40.07H8.35A21.79,21.79,0,1,0,31.06,17.36Z"/>
    </g>
  </g>
</svg>
